<svg width="40" height="40" viewBox="0 0 40 40" fill="none" xmlns="http://www.w3.org/2000/svg">
<g clip-path="url(#clip0_23_91)">
<path d="M19.5017 31.285H21.8967C21.8967 31.285 22.6184 31.2067 22.9867 30.8117C23.3367 30.4433 23.3367 29.7617 23.3367 29.7617C23.3367 29.7617 23.285 26.55 24.785 26.0783C26.2634 25.61 28.1384 29.1783 30.1367 30.55C31.6634 31.5983 32.8117 31.3733 32.8117 31.3733L38.1634 31.3C38.1634 31.3 40.9667 31.125 39.6417 28.9233C39.54 28.7483 38.89 27.2983 35.69 24.3233C32.3367 21.2217 32.7867 21.7217 36.8167 16.345C39.265 13.07 40.2667 11.0683 39.9417 10.2183C39.665 9.41834 37.8417 9.61667 37.8417 9.61667L31.8384 9.66834C31.8384 9.66834 31.3884 9.61667 31.0634 9.81834C30.7384 10.0167 30.54 10.47 30.54 10.47C30.54 10.47 29.5867 13.0183 28.3134 15.17C25.6084 19.7183 24.5334 19.9683 24.1084 19.6683C23.1017 19.0167 23.36 17.035 23.36 15.615C23.36 11.2133 24.0334 9.365 22.0584 8.89C21.4084 8.73834 20.9234 8.64 19.25 8.61334C17.1 8.59 15.2867 8.63 14.2584 9.13167C13.5834 9.47 13.0583 10.2183 13.36 10.2567C13.76 10.3067 14.6584 10.5 15.1334 11.1517C15.7584 11.995 15.7317 13.8783 15.7317 13.8783C15.7317 13.8783 16.0833 19.0717 14.9083 19.7167C14.0833 20.1533 12.9834 19.25 10.5833 15.1233C9.35835 13.0233 8.43168 10.6733 8.43168 10.6733C8.43168 10.6733 8.25668 10.2467 7.93335 9.99667C7.55502 9.72167 7.00502 9.62167 7.00502 9.62167L1.28002 9.67167C1.28002 9.67167 0.430016 9.69834 0.131683 10.0717C-0.144984 10.3967 0.105016 11.0967 0.105016 11.0967C0.105016 11.0967 4.58168 21.575 9.65835 26.8517C14.3084 31.6883 19.585 31.3767 19.585 31.3767L19.5017 31.285V31.285Z" fill="#E5E5E5"/>
</g>
<defs>
<clipPath id="clip0_23_91">
<rect width="40" height="40" fill="white"/>
</clipPath>
</defs>
</svg>
