<svg width="72" height="72" fill="none" xmlns="http://www.w3.org/2000/svg"><path d="M50.109 10.959h-28.51c-1.688.293-4.78.993-4.78.993l.327 52.02c0 1.103 1.57 3.001 2.674 3.001h32.85c1.102 0 2-2.277 2-3.38V11.952l-4.561-.993z" fill="#A57939"/><path d="M32.957 11.21l-4.084.148c-1.625 0-3.312 2.401-3.782 3.872l21.47.338c-.47-1.47-1.831-4.359-3.456-4.359l-3.802-.333c-.37 0-.185-3.836-3.344-3.688-3.16.15-2.632 4.021-3.002 4.021v.001z" fill="#D0CFCE"/><path d="M51.78 54.94v-.174c-.002.024-.01.045-.014.07.005.034.013.07.014.104zm-4.642-40.087c.008.119-2.327.591-2.88.591 0 0-20.14-.449-20.131-.568h-3.074c.236.038-.153 46.547-.153 46.547h22.536s7.361-6.437 7.361-6.463l-.152-2.856.152-36.259c0-.054-.022-.992-.022-.992h-3.637z" fill="#fff"/><path d="M42.74 57.104c.018.018.043.027.063.043-.02-.016-.045-.026-.064-.043h.001z" fill="#fff"/><path d="M50.514 55.207l-4.684-.354-2.142-.087-1.256 1.684v3.973l1.004 1 7.078-6.216z" fill="#D0CFCE"/><path d="M50.645 55.927l-7.416 6.477H20.914" stroke="#6A462F" stroke-width="2" stroke-miterlimit="10" stroke-linecap="round" stroke-linejoin="round"/><path d="M49.686 11.952h4.983v52.021a3 3 0 01-3 3h-31.85a3 3 0 01-3-3v-52.02h4.616m29.362 3.892V54.96" stroke="#000" stroke-width="2" stroke-miterlimit="10" stroke-linecap="round" stroke-linejoin="round"/><path d="M43.417 56.377v-1.413l7.379-.004-7.36 6.462H20.9V15.846m3.68 6.769h12.767m-12.767 4h16.983m-16.983 4h20.2m-20.2 4h13.553m-13.553 4h16.412m-16.412 4h7.123m10.573-31.671H38.48a2.725 2.725 0 10-5.042 0h-4.061a4.286 4.286 0 00-4.286 4.286h21.47a4.286 4.286 0 00-4.285-4.286v0z" stroke="#000" stroke-width="2" stroke-miterlimit="10" stroke-linecap="round" stroke-linejoin="round"/></svg>