<svg width="72" height="72" fill="none" xmlns="http://www.w3.org/2000/svg"><path d="M31.843 18.778c-3.526-6.933-11.93-9.884-19.035-6.57S2.56 23.854 5.606 31.012l26.237-12.235v.001z" fill="#F1B31C"/><path d="M13.204 12.156a14.41 14.41 0 019.616-.925c-.884.222-1.76.525-2.616.925-6.176 2.88-9.35 9.552-8.078 15.95L6.002 30.96c-3.045-7.158.097-15.492 7.202-18.805v.001z" fill="#FCEA2B"/><path d="M66.66 30.961c3.045-7.158-.097-15.492-7.202-18.805-7.105-3.313-15.508-.363-19.035 6.57L66.66 30.962z" fill="#F1B31C"/><path d="M59.458 12.156c-3.13-1.46-6.51-1.7-9.615-.925.883.222 1.759.525 2.615.925 6.176 2.88 9.352 9.552 8.079 15.95l6.123 2.855c3.045-7.158-.097-15.492-7.202-18.805z" fill="#FCEA2B"/><path d="M19.295 33.43c1.105 0 2-.883 2-1.972 0-1.088-.895-1.97-2-1.97s-2 .881-2 1.97.895 1.971 2 1.971z" fill="#EA5A47"/><path d="M44.295 35.43c1.105 0 2-.883 2-1.972 0-1.088-.895-1.97-2-1.97s-2 .882-2 1.97c0 1.089.895 1.971 2 1.971z" fill="#8967AA"/><path d="M40.295 57.43c1.105 0 2-.883 2-1.972 0-1.088-.895-1.97-2-1.97s-2 .882-2 1.97c0 1.089.895 1.971 2 1.971z" fill="#FCEA2B"/><path d="M31.843 18.778c-3.526-6.933-11.93-9.884-19.035-6.57S2.56 23.854 5.606 31.012l26.237-12.235v.001zM66.66 30.961c3.045-7.158-.097-15.492-7.202-18.805-7.105-3.313-15.508-.363-19.035 6.57L66.66 30.962v0zm-30.299-.619c-.436.257-.84.588-1.194.992-1.834 2.094-1.632 5.361.452 7.297" stroke="#000" stroke-width="2" stroke-miterlimit="10" stroke-linecap="round" stroke-linejoin="round"/><path d="M35.467 38.513a4.89 4.89 0 011.089 1.106c1.615 2.267 1.087 5.498-1.18 7.215m-14.42-3.881c-.495.105-.984.29-1.448.56-2.405 1.402-3.254 4.563-1.894 7.062" stroke="#000" stroke-width="2" stroke-miterlimit="10" stroke-linecap="round" stroke-linejoin="round"/><path d="M17.507 50.414c.292.414.524.882.68 1.395.81 2.664-.719 5.558-3.415 6.465M53.493 38.62a4.87 4.87 0 011.361.745c2.201 1.705 2.626 4.951.95 7.25" stroke="#000" stroke-width="2" stroke-miterlimit="10" stroke-linecap="round" stroke-linejoin="round"/><path d="M55.931 46.469c-.353.383-.642.82-.857 1.294-1.153 2.534-.018 5.604 2.536 6.857" stroke="#000" stroke-width="2" stroke-miterlimit="10" stroke-linecap="round" stroke-linejoin="round"/></svg>