<svg width="72" height="72" fill="none" xmlns="http://www.w3.org/2000/svg"><path d="M35.71 64.65c4.779 0 7.509-2.244 8.156-5.151h-16.31c.647 2.907 3.376 5.151 8.155 5.151h-.001z" fill="#D0CFCE"/><path d="M45.5 10.41s-12.23-3.457-18.2 1.269c-5.969 4.726-7.651 15.6-7.651 15.6.585 2.213 4.226 8.493 4.226 8.493.54.91 2.253 7.98 3.249 11.86h17.17c.866-2.845 4.35-13.65 4.805-14.71.584-1.363 1.58-4.016 2.083-5.017 1.21-2.41.538-4.455.538-7.027 0-5.487-1.902-7.726-6.221-10.47l.001.002z" fill="#FCEA2B"/><path d="M35.71 7.202c-8.532 0-16.5 6.752-16.5 15.28 0 1.079-.264 4.491 1.217 4.491 0 0 2.393-7.825 8.362-12.55 5.969-4.725 15.52-3.725 15.52-3.725-.664-2.045-5.55-3.499-8.596-3.499l-.003.003z" fill="#fff"/><path d="M52.55 23.75c0 3.985-1.785 5.908-3.754 10.5-.503 1.172-4.211 13.38-4.211 13.38h-17.17s-2.981-11.67-3.546-12.62c-2.37-3.998-4.419-6.91-4.419-11.26C19.45 14.609 26.86 7.2 36 7.2c9.141 0 16.55 7.41 16.55 16.55z" stroke="#000" stroke-width="2" stroke-miterlimit="10" stroke-linecap="round" stroke-linejoin="round"/><path d="M36 47.22V35.28v11.94z" fill="#000"/><path d="M36 47.22V35.28" stroke="#000" stroke-width="2" stroke-miterlimit="10" stroke-linecap="round" stroke-linejoin="round"/><path d="M41.97 35.28H30.03h11.94z" fill="#000"/><path d="M41.97 35.28H30.03" stroke="#000" stroke-width="2" stroke-miterlimit="10" stroke-linecap="round" stroke-linejoin="round"/><path d="M44.16 58.79c0 3.24-3.651 5.867-8.155 5.867S27.85 62.03 27.85 58.79h16.31z" stroke="#000" stroke-width="1.696" stroke-miterlimit="10" stroke-linecap="round" stroke-linejoin="round"/><path d="M27.99 54.98l16.02-3.47-16.02 3.47z" fill="#000"/><path d="M27.99 54.98l16.02-3.47" stroke="#000" stroke-width="1.965" stroke-miterlimit="10" stroke-linecap="round" stroke-linejoin="round"/><path d="M38.2 56.07l5.78-1.18-5.78 1.18z" fill="#000"/><path d="M38.2 56.07l5.78-1.18" stroke="#000" stroke-width="2" stroke-miterlimit="10" stroke-linecap="round" stroke-linejoin="round"/><path d="M28.02 51.6l5.78-1.18-5.78 1.18z" fill="#000"/><path d="M28.02 51.6l5.78-1.18" stroke="#000" stroke-width="2" stroke-miterlimit="10" stroke-linecap="round" stroke-linejoin="round"/></svg>