<svg width="44" height="44" fill="none" xmlns="http://www.w3.org/2000/svg"><g clip-path="url(#clip0_392_131)"><path d="M17.552 3.993c9.693-2.205 19.339 3.865 21.544 13.559 2.206 9.693-3.865 19.339-13.558 21.544-9.694 2.205-19.34-3.865-21.545-13.558-2.205-9.694 3.865-19.34 13.559-21.545zm7.893 5.537c-.366.06-.644.351-.805.791l-1.364 5.097c-.13.597.145 1.141.61 1.44l1.349.85a.551.551 0 01.185.287c-.05 1.727-.987 3.523-1.88 4.815-.892 1.291-1.786 2.969-3.284 3.659-.182.098-.416.172-.585.074l-1.573-1.01c-.516-.234-1.19-.25-1.6.13l-.02.005-3.75 3.54c-.544.544-.435 1.329.127 1.694l3.655 2.28c.543.351 1.163.37 1.732.241 2.497-.647 4.592-2.421 6.254-4.133 2.673-3.06 4.954-6.617 6.004-10.529.374-1.625.78-3.682.329-5.298-.147-.613-.45-1.177-.974-1.475l-3.66-2.304c-.278-.145-.53-.19-.75-.154z" fill="#fff"/></g><defs><clipPath id="clip0_392_131"><path fill="#fff" transform="scale(-1 1) rotate(12.817 -17.552 -156.265)" d="M0 0h36v36H0z"/></clipPath></defs></svg>