<svg width="72" height="72" viewBox="0 0 72 72" fill="none" xmlns="http://www.w3.org/2000/svg">
<path d="M59.5 25C59.5 18.096 53.904 12.5 47 12.5C44.7452 12.4994 42.5323 13.1088 40.5958 14.2637C38.6592 15.4186 37.0712 17.0759 36 19.06C34.9288 17.0759 33.3408 15.4186 31.4042 14.2637C29.4677 13.1088 27.2548 12.4994 25 12.5C18.096 12.5 12.5 18.096 12.5 25C12.5 27.97 13.54 30.694 15.27 32.839L15.266 32.842L36 58.54L56.734 32.842L56.73 32.839C58.525 30.621 59.503 27.8533 59.5 25Z" fill="#FBAD03"/>
<path d="M59.5 25C59.5 18.096 53.904 12.5 47 12.5C44.7452 12.4994 42.5323 13.1088 40.5958 14.2637C38.6592 15.4186 37.0712 17.0759 36 19.06C34.9288 17.0759 33.3408 15.4186 31.4042 14.2637C29.4677 13.1088 27.2548 12.4994 25 12.5C18.096 12.5 12.5 18.096 12.5 25C12.5 27.97 13.54 30.694 15.27 32.839L15.266 32.842L36 58.54L56.734 32.842L56.73 32.839C58.525 30.621 59.503 27.8533 59.5 25V25Z" stroke="black" stroke-width="2" stroke-miterlimit="10" stroke-linejoin="round"/>
</svg>
