<svg width="72" height="72" viewBox="0 0 72 72" fill="none" xmlns="http://www.w3.org/2000/svg">
<path d="M50.1089 10.959H21.5989C19.9109 11.252 16.8199 11.952 16.8199 11.952L17.1459 63.972C17.1459 65.075 18.7169 66.973 19.8199 66.973H52.6699C53.7719 66.973 54.6699 64.696 54.6699 63.593V11.952L50.1089 10.959Z" fill="#A57939"/>
<path d="M32.9569 11.21L28.8729 11.358C27.2479 11.358 25.5609 13.759 25.0909 15.23L46.5619 15.568C46.0919 14.098 44.7299 11.209 43.1049 11.209L39.3029 10.876C38.9329 10.876 39.1179 7.04001 35.9589 7.18801C32.7999 7.33801 33.3269 11.209 32.9569 11.209V11.21Z" fill="#D0CFCE"/>
<path d="M51.78 54.9401V54.7661C51.778 54.7901 51.77 54.8111 51.766 54.8351C51.771 54.8701 51.779 54.9051 51.78 54.9401Z" fill="white"/>
<path d="M47.138 14.853C47.146 14.972 44.811 15.444 44.258 15.444C44.258 15.444 24.118 14.995 24.127 14.876H21.053C21.289 14.914 20.9 61.423 20.9 61.423H43.436C43.436 61.423 50.797 54.986 50.797 54.96L50.645 52.104L50.797 15.845C50.797 15.791 50.775 14.853 50.775 14.853H47.138Z" fill="white"/>
<path d="M42.74 57.104C42.758 57.122 42.783 57.131 42.803 57.147C42.783 57.131 42.758 57.121 42.739 57.104H42.74Z" fill="white"/>
<path d="M50.514 55.2071L45.83 54.8531L43.688 54.7661L42.432 56.4501V60.4231L43.436 61.4231L50.514 55.2071Z" fill="#D0CFCE"/>
<path d="M50.6449 55.927L43.2289 62.404H20.9139" stroke="#6A462F" stroke-width="2" stroke-miterlimit="10" stroke-linecap="round" stroke-linejoin="round"/>
<path d="M49.6859 11.9521H54.6689V63.9731C54.6689 64.7688 54.3529 65.5319 53.7903 66.0945C53.2277 66.6571 52.4646 66.9731 51.6689 66.9731H19.8199C19.0243 66.9731 18.2612 66.6571 17.6986 66.0945C17.136 65.5319 16.8199 64.7688 16.8199 63.9731V11.9521H21.4349" stroke="black" stroke-width="2" stroke-miterlimit="10" stroke-linecap="round" stroke-linejoin="round"/>
<path d="M50.797 15.845V54.96" stroke="black" stroke-width="2" stroke-miterlimit="10" stroke-linecap="round" stroke-linejoin="round"/>
<path d="M43.4169 56.3769V54.9639L50.7959 54.9599L43.4359 61.4219H20.8999V15.8459" stroke="black" stroke-width="2" stroke-miterlimit="10" stroke-linecap="round" stroke-linejoin="round"/>
<path d="M24.5809 22.615H37.3469" stroke="black" stroke-width="2" stroke-miterlimit="10" stroke-linecap="round" stroke-linejoin="round"/>
<path d="M24.5809 26.615H41.5629" stroke="black" stroke-width="2" stroke-miterlimit="10" stroke-linecap="round" stroke-linejoin="round"/>
<path d="M24.5809 30.615H44.7809" stroke="black" stroke-width="2" stroke-miterlimit="10" stroke-linecap="round" stroke-linejoin="round"/>
<path d="M24.5809 34.615H38.1329" stroke="black" stroke-width="2" stroke-miterlimit="10" stroke-linecap="round" stroke-linejoin="round"/>
<path d="M24.5809 38.615H40.9919" stroke="black" stroke-width="2" stroke-miterlimit="10" stroke-linecap="round" stroke-linejoin="round"/>
<path d="M24.5809 42.615H31.7029" stroke="black" stroke-width="2" stroke-miterlimit="10" stroke-linecap="round" stroke-linejoin="round"/>
<path d="M42.2759 10.9441H38.4799C38.6498 10.5302 38.7151 10.0809 38.6702 9.63576C38.6252 9.19066 38.4714 8.76347 38.2222 8.3919C37.973 8.02034 37.6362 7.71584 37.2415 7.50528C36.8468 7.29471 36.4063 7.18457 35.9589 7.18457C35.5116 7.18457 35.0711 7.29471 34.6764 7.50528C34.2817 7.71584 33.9448 8.02034 33.6957 8.3919C33.4465 8.76347 33.2927 9.19066 33.2477 9.63576C33.2028 10.0809 33.2681 10.5302 33.4379 10.9441H29.3769C28.2402 10.9441 27.1501 11.3956 26.3463 12.1994C25.5425 13.0032 25.0909 14.0933 25.0909 15.2301H46.5619C46.5619 14.6672 46.4511 14.1099 46.2357 13.5899C46.0203 13.0699 45.7046 12.5974 45.3066 12.1994C44.9086 11.8014 44.4361 11.4857 43.9161 11.2703C43.3961 11.0549 42.8388 10.9441 42.2759 10.9441V10.9441Z" stroke="black" stroke-width="2" stroke-miterlimit="10" stroke-linecap="round" stroke-linejoin="round"/>
</svg>
