<svg width="72" height="72" viewBox="0 0 72 72" fill="none" xmlns="http://www.w3.org/2000/svg">
<path d="M31.843 18.778C28.317 11.845 19.913 8.89404 12.808 12.208C5.703 15.522 2.56 23.854 5.606 31.012L31.843 18.777V18.778Z" fill="#F1B31C"/>
<path d="M13.2041 12.1561C16.3341 10.6961 19.7141 10.4561 22.8201 11.2311C21.9361 11.4531 21.0601 11.7561 20.2041 12.1561C14.0281 15.0361 10.8531 21.7081 12.1261 28.1061L6.00206 30.9601C2.95706 23.8021 6.09906 15.4681 13.2041 12.1551V12.1561Z" fill="#FCEA2B"/>
<path d="M66.66 30.9611C69.705 23.8031 66.563 15.4691 59.458 12.1561C52.353 8.84309 43.95 11.7931 40.423 18.7261L66.66 30.9621V30.9611Z" fill="#F1B31C"/>
<path d="M59.458 12.1561C56.328 10.6961 52.948 10.4561 49.843 11.2311C50.726 11.4531 51.602 11.7561 52.458 12.1561C58.634 15.0361 61.81 21.7081 60.537 28.1061L66.66 30.9611C69.705 23.8031 66.563 15.4691 59.458 12.1561Z" fill="#FCEA2B"/>
<path d="M19.295 33.4291C20.3996 33.4291 21.295 32.5466 21.295 31.4581C21.295 30.3695 20.3996 29.4871 19.295 29.4871C18.1905 29.4871 17.295 30.3695 17.295 31.4581C17.295 32.5466 18.1905 33.4291 19.295 33.4291Z" fill="#EA5A47"/>
<path d="M44.295 35.4291C45.3996 35.4291 46.295 34.5466 46.295 33.4581C46.295 32.3695 45.3996 31.4871 44.295 31.4871C43.1905 31.4871 42.295 32.3695 42.295 33.4581C42.295 34.5466 43.1905 35.4291 44.295 35.4291Z" fill="#8967AA"/>
<path d="M40.295 57.4291C41.3996 57.4291 42.295 56.5466 42.295 55.4581C42.295 54.3695 41.3996 53.4871 40.295 53.4871C39.1905 53.4871 38.295 54.3695 38.295 55.4581C38.295 56.5466 39.1905 57.4291 40.295 57.4291Z" fill="#FCEA2B"/>
<path d="M31.843 18.778C28.317 11.845 19.913 8.89404 12.808 12.208C5.703 15.522 2.56 23.854 5.606 31.012L31.843 18.777V18.778Z" stroke="black" stroke-width="2" stroke-miterlimit="10" stroke-linecap="round" stroke-linejoin="round"/>
<path d="M66.66 30.9611C69.705 23.8031 66.563 15.4691 59.458 12.1561C52.353 8.84309 43.95 11.7931 40.423 18.7261L66.66 30.9621V30.9611Z" stroke="black" stroke-width="2" stroke-miterlimit="10" stroke-linecap="round" stroke-linejoin="round"/>
<path d="M36.361 30.342C35.925 30.599 35.521 30.93 35.167 31.334C33.333 33.428 33.535 36.695 35.619 38.631" stroke="black" stroke-width="2" stroke-miterlimit="10" stroke-linecap="round" stroke-linejoin="round"/>
<path d="M35.467 38.5132C35.875 38.8122 36.244 39.1822 36.556 39.6192C38.171 41.8862 37.643 45.1172 35.376 46.8342" stroke="black" stroke-width="2" stroke-miterlimit="10" stroke-linecap="round" stroke-linejoin="round"/>
<path d="M20.956 42.9531C20.461 43.0581 19.972 43.2431 19.508 43.5131C17.103 44.9151 16.254 48.0761 17.614 50.5751" stroke="black" stroke-width="2" stroke-miterlimit="10" stroke-linecap="round" stroke-linejoin="round"/>
<path d="M17.507 50.4141C17.799 50.8281 18.031 51.2961 18.187 51.8091C18.997 54.4731 17.468 57.3671 14.772 58.2741" stroke="black" stroke-width="2" stroke-miterlimit="10" stroke-linecap="round" stroke-linejoin="round"/>
<path d="M53.493 38.6201C53.97 38.7891 54.43 39.0361 54.854 39.3651C57.055 41.0701 57.48 44.3161 55.804 46.6151" stroke="black" stroke-width="2" stroke-miterlimit="10" stroke-linecap="round" stroke-linejoin="round"/>
<path d="M55.931 46.469C55.578 46.8518 55.2887 47.2887 55.074 47.763C53.921 50.297 55.056 53.367 57.61 54.62" stroke="black" stroke-width="2" stroke-miterlimit="10" stroke-linecap="round" stroke-linejoin="round"/>
</svg>
