<svg width="72" height="72" viewBox="0 0 72 72" fill="none" xmlns="http://www.w3.org/2000/svg">
<path d="M18 60.9V57C18 52 21.8 48 26.8 48C32.8 53 38.8 53 44.8 48C49.8 48 54 52 54 57V60.9H18Z" fill="#FBAD03"/>
<path d="M22.1 49.4C23.5 48.5 25.1 48 26.8 48C32.8 53 38.8 53 44.8 48C46.5 48 48.1 48.5 49.5 49.3C50.7 48.4 51.8 47.5 52.6 46.7C55.5 43.6 56.3 39.9 54.6 35.9C52.2 30.2 51.6 30.3 51.2 23.1C51.2 18.9 48 15.4 43.8 15.1C43.8 15.1 41.2 12.1 35.8 12.1C29.4 12.1 23.6 15.6 22.1 21.1C20.6 26.7 22.4 28.9 20.8 33.1C19 37.8 15 41.5 19.5 47C20.1 47.7 21 48.6 22.1 49.4Z" fill="#A57939"/>
<path d="M25 32C25 40 29.8 44.9 35.8 44.9C41.8 44.9 47 40 47 32C47 28 46 26 46 26L42 22C42 22 30 24 26 26C26 26 25 28 25 32Z" fill="#FADCBC"/>
<path d="M18 60V56.9C18 51.9 21.8 47.9 26.8 47.9C32.8 52.9 38.8 52.9 44.8 47.9C49.8 47.9 54 51.9 54 56.9V60" stroke="black" stroke-width="2" stroke-linecap="round" stroke-linejoin="round"/>
<path d="M42 31C42 32.1 41.1 33 40 33C38.9 33 38 32.1 38 31C38 29.9 38.9 29 40 29C41.1 29 42 29.9 42 31Z" fill="black"/>
<path d="M34 31C34 32.1 33.1 33 32 33C30.9 33 30 32.1 30 31C30 29.9 30.9 29 32 29C33.1 29 34 29.9 34 31Z" fill="black"/>
<path d="M25 32C25 40 29.8 44.9 35.8 44.9C41.8 44.9 47 40 47 32C47 28 46 26 46 26L42 22C42 22 30 24 26 26C26 26 25 28 25 32Z" stroke="black" stroke-width="2" stroke-linejoin="round"/>
<path d="M32.8 38.2C34.7 39.2 36.9 39.2 38.8 38.2" stroke="black" stroke-width="2" stroke-linecap="round" stroke-linejoin="round"/>
<path d="M20 46C16 40 18.2 37.7 20.1 33C21.7 28.8 19.9 26.5 21.4 21C22.9 15.5 28.7 12 35.1 12C40.5 12 43.1 15 43.1 15C47.3 15.4 50.5 18.9 50.5 23C50.9 30.2 51.5 30.2 53.9 35.8C55.7 39.9 54.9 42.6 52 45.9" stroke="black" stroke-width="2" stroke-linecap="round" stroke-linejoin="round"/>
</svg>
