<svg width="72" height="72" viewBox="0 0 72 72" fill="none" xmlns="http://www.w3.org/2000/svg">
<path d="M27.4469 62.537L27.0449 39.624C25.3249 40.678 20.9139 45.187 20.4539 51.444C19.9739 57.96 25.5069 61.644 27.4469 62.537Z" fill="#9B9B9A"/>
<path d="M44.716 39.5301L44.556 62.4421C45.566 61.9821 47.544 61.6251 49.159 59.5861C50.661 57.6911 51.849 54.2161 51.655 51.0961C51.485 48.3771 50.833 45.6681 49.597 43.8011C48.001 41.3901 45.677 40.1391 44.716 39.5291V39.5301Z" fill="#9B9B9A"/>
<path d="M44.556 61.5741L44.716 40.0761C44.718 39.7631 44.338 38.6141 44.456 38.5821V38.5471L40.644 39.6241C40.642 39.6311 40.649 39.6491 40.649 39.6591C41.051 39.5721 40.199 41.0881 39.728 41.3771C39.128 41.7441 39.421 42.4711 39.413 43.1681L39.24 58.6721C39.234 59.2781 40.94 62.4351 40.881 62.4241C40.8787 62.4301 40.8764 62.4361 40.874 62.4421L44.455 63.4601V63.4241C44.263 63.4041 44.554 61.8771 44.555 61.5741H44.556Z" fill="#D0CFCE"/>
<path d="M31.5301 60.6569C32.2601 60.3389 32.6151 58.5219 32.6151 57.7279L32.495 42.8619C32.495 42.6719 32.321 41.7879 32.271 41.6119C32.18 41.2899 30.9441 39.5809 31.3771 39.6769C31.3801 39.6609 31.39 39.6369 31.39 39.6239L27.806 38.6379V38.6759C27.926 38.7099 27.202 40.4309 27.201 40.7439L27.2561 61.3489C27.2551 61.6519 27.9301 63.4039 27.8561 63.4379L31.3011 62.5369L31.305 62.5109C31.205 62.5429 31.025 60.8789 31.531 60.6569H31.5301Z" fill="#D0CFCE"/>
<path d="M60.833 48.3C62.26 45.12 63.043 33.192 63.043 33.183C63.043 23.989 55.6 15.558 55.6 15.558C55.6 15.558 53.545 12.657 49.759 10.793C44.736 8.31998 37.627 6.70898 37.625 6.70898C28.691 6.72098 18.525 11.586 13.277 19.194C11.695 21.488 10.237 27.967 9.38402 30.031C8.34402 32.543 9.40002 41.081 9.41002 41.146C9.48002 41.6 10.186 45.292 10.279 45.598C10.401 46.001 13.429 52.928 13.755 53.443C14.003 53.833 15.005 54.147 14.708 54.472L14.716 54.509C14.716 54.509 16.259 52.539 14.75 50.064C13.241 47.588 11.585 41.117 11.585 35.619C11.585 20.884 22.088 9.76598 36.015 9.75698C49.943 9.76598 60.445 20.884 60.445 35.619C60.445 41.119 58.42 48.649 57.187 50.712C55.955 52.773 57.163 54.318 57.163 54.318L57.178 54.27C57.016 53.963 59.406 51.479 60.833 48.3Z" fill="#D0CFCE"/>
<path d="M31.161 40.6338C31.6553 40.8878 32.0701 41.273 32.3599 41.7471C32.6497 42.2213 32.8034 42.7661 32.804 43.3218V58.8258C32.804 60.0558 32.064 61.1108 31.004 61.5738" stroke="black" stroke-width="2" stroke-miterlimit="10" stroke-linecap="round" stroke-linejoin="round"/>
<path d="M27.5421 39.6238C27.5421 39.6238 21.1881 41.4088 20.4741 51.1128C19.7601 60.8168 27.4471 62.5368 27.4471 62.5368L27.5421 39.6238V39.6238Z" stroke="black" stroke-width="2" stroke-miterlimit="10" stroke-linecap="round" stroke-linejoin="round"/>
<path d="M40.8591 40.626C40.4226 40.8927 40.061 41.2658 39.8081 41.7104C39.5552 42.155 39.4193 42.6565 39.4131 43.168L39.2401 58.672C39.2335 59.2641 39.4024 59.8449 39.7256 60.3411C40.0488 60.8373 40.5118 61.2267 41.0561 61.46" stroke="black" stroke-width="2" stroke-miterlimit="10" stroke-linecap="round" stroke-linejoin="round"/>
<path d="M44.7161 39.5298C44.7161 39.5298 51.0501 41.3848 51.6551 51.0958C52.2601 60.8058 44.5551 62.4418 44.5551 62.4418L44.7161 39.5288V39.5298Z" stroke="black" stroke-width="2" stroke-miterlimit="10" stroke-linecap="round" stroke-linejoin="round"/>
<path d="M58.047 53.8079C61.257 48.7499 63.137 42.6379 63.137 35.6189C63.137 19.8599 51.784 7.08289 36.031 7.06689H36C20.247 7.08289 8.89502 19.8599 8.89502 35.6189C8.89502 42.6379 10.775 48.7489 13.983 53.8089" stroke="black" stroke-width="2" stroke-miterlimit="10" stroke-linecap="round" stroke-linejoin="round"/>
<path d="M50.2141 20.194C47.0811 15.75 42.0471 12.882 36.0251 12.876V12.875H36.0051C30.0091 12.882 24.9921 15.725 21.8571 20.137" stroke="black" stroke-width="2" stroke-miterlimit="10" stroke-linecap="round" stroke-linejoin="round"/>
</svg>
