<svg width="40" height="40" viewBox="0 0 40 40" fill="none" xmlns="http://www.w3.org/2000/svg">
<path d="M24.175 29.0667C26.3 28.5833 28.33 27.7433 30.175 26.5833C31.565 25.6533 31.9383 23.7733 31.0083 22.3833C30.115 21.0467 28.335 20.6433 26.95 21.4617C22.7 24.12 17.3 24.12 13.05 21.4617C11.6383 20.5717 9.77498 20.995 8.88331 22.4033C8.88331 22.4067 8.88331 22.41 8.87998 22.4117C7.98998 23.8233 8.41331 25.6883 9.82498 26.5783L9.82831 26.5817C11.67 27.74 13.6983 28.5817 15.8216 29.0617L10.0466 34.8367C8.86831 35.995 8.84664 37.8867 9.99998 39.065L10.05 39.115C10.6233 39.705 11.4 39.9983 12.1733 39.9983C12.9483 39.9983 13.7233 39.705 14.2983 39.115L20 33.4417L25.6733 39.1183C26.8733 40.2767 28.79 40.245 29.95 39.0433C31.08 37.8717 31.08 36.0133 29.95 34.8433L24.175 29.0667ZM20 20.6467C25.7 20.64 30.3166 16.0233 30.325 10.325C30.325 4.63333 25.6916 0 20 0C14.3083 0 9.67498 4.63333 9.67498 10.3283C9.68331 16.0283 14.3016 20.645 20 20.6483V20.6467ZM20 6.05167C22.36 6.055 24.2716 7.96833 24.2733 10.3267C24.2733 12.6867 22.36 14.5983 20 14.6017C17.6416 14.5983 15.73 12.6883 15.725 10.3283C15.7283 7.96667 17.6416 6.055 20 6.05V6.05167Z" fill="#E5E5E5"/>
</svg>
