<svg width="72" height="72" viewBox="0 0 72 72" fill="none" xmlns="http://www.w3.org/2000/svg">
<path d="M35.71 64.65C40.489 64.65 43.219 62.406 43.866 59.499H27.556C28.203 62.406 30.932 64.65 35.711 64.65H35.71Z" fill="#D0CFCE"/>
<path d="M45.5 10.4099C45.5 10.4099 33.27 6.95288 27.3 11.6789C21.331 16.4049 19.649 27.2789 19.649 27.2789C20.234 29.4919 23.875 35.7719 23.875 35.7719C24.415 36.6829 26.128 43.7529 27.124 47.6319H44.294C45.16 44.7869 48.644 33.9819 49.099 32.9219C49.683 31.5589 50.679 28.9059 51.182 27.9049C52.392 25.4959 51.72 23.4499 51.72 20.8779C51.72 15.3909 49.818 13.1519 45.499 10.4079L45.5 10.4099Z" fill="#FCEA2B"/>
<path d="M35.71 7.20197C27.178 7.20197 19.21 13.954 19.21 22.482C19.21 23.561 18.946 26.973 20.427 26.973C20.427 26.973 22.82 19.148 28.789 14.423C34.758 9.69798 44.309 10.698 44.309 10.698C43.645 8.65297 38.759 7.19897 35.713 7.19897L35.71 7.20197Z" fill="white"/>
<path d="M52.5499 23.75C52.5499 27.735 50.765 29.658 48.796 34.25C48.293 35.422 44.5849 47.63 44.5849 47.63H27.415C27.415 47.63 24.4339 35.9599 23.8689 35.0099C21.499 31.0119 19.45 28.1 19.45 23.75C19.45 14.609 26.86 7.19995 36 7.19995C45.141 7.19995 52.5499 14.61 52.5499 23.75Z" stroke="black" stroke-width="2" stroke-miterlimit="10" stroke-linecap="round" stroke-linejoin="round"/>
<path d="M36 47.22V35.28V47.22Z" fill="black"/>
<path d="M36 47.22V35.28" stroke="black" stroke-width="2" stroke-miterlimit="10" stroke-linecap="round" stroke-linejoin="round"/>
<path d="M41.9699 35.28H30.0299H41.9699Z" fill="black"/>
<path d="M41.9699 35.28H30.0299" stroke="black" stroke-width="2" stroke-miterlimit="10" stroke-linecap="round" stroke-linejoin="round"/>
<path d="M44.16 58.79C44.16 62.03 40.509 64.657 36.005 64.657C31.501 64.657 27.85 62.03 27.85 58.79H44.16Z" stroke="black" stroke-width="1.696" stroke-miterlimit="10" stroke-linecap="round" stroke-linejoin="round"/>
<path d="M27.99 54.98L44.01 51.51L27.99 54.98Z" fill="black"/>
<path d="M27.99 54.98L44.01 51.51" stroke="black" stroke-width="1.965" stroke-miterlimit="10" stroke-linecap="round" stroke-linejoin="round"/>
<path d="M38.2 56.0699L43.9799 54.8899L38.2 56.0699Z" fill="black"/>
<path d="M38.2 56.0699L43.9799 54.8899" stroke="black" stroke-width="2" stroke-miterlimit="10" stroke-linecap="round" stroke-linejoin="round"/>
<path d="M28.0199 51.5999L33.7999 50.4199L28.0199 51.5999Z" fill="black"/>
<path d="M28.0199 51.5999L33.7999 50.4199" stroke="black" stroke-width="2" stroke-miterlimit="10" stroke-linecap="round" stroke-linejoin="round"/>
</svg>
