<svg width="144" height="144" viewBox="0 0 144 144" fill="none" xmlns="http://www.w3.org/2000/svg">
<path d="M69.9761 128.025C70.7972 128.046 71.5174 128.252 72.137 128.641C72.7565 129.03 73.2368 129.646 73.578 130.487C73.9082 131.338 74.0556 132.451 74.0203 133.827C73.9887 135.053 73.8511 136.047 73.6074 136.809C73.3635 137.582 73.0388 138.177 72.6333 138.593C72.2171 139.009 71.7404 139.29 71.2031 139.436C70.6552 139.582 70.0666 139.647 69.4375 139.631C69.1816 139.625 68.8675 139.6 68.4951 139.559C68.112 139.517 67.7399 139.465 67.3787 139.402C67.0066 139.35 66.7146 139.294 66.5027 139.236L66.7506 137.689C66.8569 137.703 67.0324 137.723 67.2771 137.751C67.5109 137.789 67.7661 137.822 68.0428 137.851C68.3195 137.879 68.5804 137.902 68.8253 137.919C69.07 137.946 69.2617 137.962 69.4003 137.966C69.8802 137.978 70.2647 137.961 70.554 137.915C70.8433 137.869 71.0537 137.779 71.1852 137.643C71.3381 137.509 71.477 137.293 71.6019 136.998C71.7269 136.702 71.8336 136.289 71.9219 135.758C71.9993 135.237 72.0487 134.561 72.0701 133.729C72.097 132.684 72.0224 131.85 71.8464 131.226C71.6594 130.613 71.467 130.214 71.269 130.027C71.0192 129.786 70.6223 129.658 70.0785 129.644C69.6946 129.634 69.315 129.667 68.9396 129.743C68.5639 129.829 68.2201 129.922 67.9081 130.021C67.5852 130.13 67.332 130.225 67.1485 130.305C66.9544 130.386 66.8573 130.426 66.8573 130.426L66.3026 128.971C66.3026 128.971 66.3946 128.92 66.5786 128.818C66.7623 128.727 67.0159 128.616 67.3394 128.485C67.6628 128.355 68.0499 128.242 68.5005 128.147C68.9511 128.052 69.4429 128.011 69.9761 128.025Z" fill="#FBAD03"/>
<path d="M59.2466 127.094L55.5705 137.664L53.1557 136.916L53.067 129.686L52.9753 129.657L48.7846 135.562L46.4004 134.823L49.3276 124.022L51.1004 124.571L48.4183 133.338L48.5252 133.371L52.5627 127.637L54.5496 128.252L54.6234 135.26L54.7304 135.293L57.4737 126.545L59.2466 127.094Z" fill="#FBAD03"/>
<path d="M40.6306 118.767C41.1408 119.097 41.5732 119.479 41.928 119.913C42.2737 120.34 42.5051 120.846 42.6222 121.43C42.7302 122.009 42.6768 122.68 42.4618 123.443C42.2379 124.2 41.8039 125.076 41.1599 126.069C40.5218 127.054 39.9056 127.799 39.3116 128.303C38.7027 128.811 38.1151 129.129 37.5487 129.258C36.9676 129.39 36.4142 129.381 35.8886 129.231C35.3482 129.084 34.8229 128.845 34.3127 128.514C33.8114 128.19 33.3835 127.81 33.0287 127.377C32.6682 126.953 32.4339 126.451 32.3258 125.873C32.212 125.303 32.2625 124.637 32.4775 123.874C32.6867 123.12 33.1104 122.25 33.7485 121.266C34.3925 120.272 35.0189 119.521 35.6277 119.013C36.2365 118.506 36.8271 118.183 37.3993 118.045C37.9715 117.908 38.5277 117.912 39.0681 118.059C39.6085 118.206 40.1293 118.442 40.6306 118.767ZM39.7255 120.163C39.3675 119.931 39.0326 119.771 38.7208 119.684C38.4032 119.605 38.0884 119.63 37.7765 119.758C37.4555 119.88 37.1069 120.144 36.7304 120.548C36.3482 120.961 35.9134 121.544 35.4261 122.296C34.933 123.057 34.5787 123.691 34.3634 124.2C34.1333 124.712 34.0279 125.139 34.0471 125.482C34.0516 125.828 34.1575 126.126 34.3649 126.375C34.5665 126.632 34.8508 126.88 35.2177 127.118C35.5847 127.356 35.927 127.514 36.2446 127.593C36.5564 127.681 36.8757 127.659 37.2024 127.527C37.5143 127.399 37.8614 127.128 38.2437 126.715C38.6201 126.311 39.0549 125.728 39.548 124.967C40.0353 124.215 40.3896 123.581 40.6107 123.063C40.826 122.554 40.927 122.124 40.9135 121.772C40.8943 121.429 40.781 121.133 40.5736 120.884C40.3663 120.636 40.0836 120.395 39.7255 120.163Z" fill="#FBAD03"/>
<path d="M31.1304 111.225L24.108 117.794L26.2819 120.033L25.1054 121.141L19.566 115.258L20.7425 114.151L22.8794 116.49L29.8471 109.862L31.1304 111.225Z" fill="#FBAD03"/>
<path d="M24.1084 102.606L19.5515 105.112L14.3892 108.107C14.3892 108.107 14.3195 108.005 14.1801 107.802C14.0407 107.599 13.8599 107.334 13.6376 107.006C13.4101 106.669 13.1741 106.306 12.9296 105.918C12.6799 105.52 12.4473 105.131 12.2319 104.75C11.717 103.84 11.5962 102.977 11.8694 102.161C12.1427 101.344 12.8363 100.621 13.9502 99.9901C14.6464 99.5961 15.2745 99.3632 15.8345 99.2914C16.3799 99.2155 16.8692 99.2572 17.3025 99.4165C17.7213 99.5717 18.0915 99.8034 18.413 100.112C18.7253 100.425 18.9944 100.782 19.2203 101.181C19.4042 101.506 19.5736 101.826 19.7284 102.143C19.8832 102.46 19.9822 102.668 20.0255 102.766L23.1863 100.977L24.1084 102.606ZM17.8442 101.868C17.5499 101.348 17.2766 101.049 17.0243 100.971C16.8207 100.915 16.5361 100.953 16.1704 101.087C15.8047 101.22 15.3434 101.445 14.7864 101.76C14.3315 102.017 14.0012 102.235 13.7954 102.413C13.5896 102.59 13.4587 102.738 13.4026 102.856C13.332 102.969 13.2893 103.067 13.2744 103.149C13.2607 103.255 13.2905 103.415 13.3637 103.631C13.4224 103.843 13.5279 104.084 13.6803 104.353C13.8484 104.65 14.0252 104.93 14.2107 105.193C14.3909 105.446 14.5422 105.649 14.6646 105.8L18.6191 103.562C18.5957 103.477 18.5158 103.271 18.3796 102.944C18.2381 102.607 18.0596 102.248 17.8442 101.868Z" fill="#FBAD03"/>
<path d="M17.8094 89.4906L6.99425 92.339L5.45386 86.4905L7.01657 86.0789L8.04922 90.1253L11.1022 89.404L10.1201 85.6752L11.6364 85.2758L12.6185 89.0046L15.8009 88.0837L14.7063 84.0536L16.269 83.642L17.8094 89.4906Z" fill="#FBAD03"/>
<path d="M15.0839 73.7021L5.46875 73.8354L5.57036 76.9541L3.9546 76.9819L3.81574 68.9031L5.4315 68.8753L5.43795 72.0437L15.0517 71.8304L15.0839 73.7021Z" fill="#FBAD03"/>
<path d="M15.7049 62.5895L9.98123 61.2766L4.79305 60.2115L5.18484 58.4137L9.23381 59.2961C9.26654 59.0958 9.30087 58.8631 9.33681 58.598C9.37502 58.3225 9.42706 58.0336 9.49292 57.7314C9.661 56.9601 9.91285 56.3054 10.2485 55.7672C10.5737 55.2267 11.0373 54.8529 11.6392 54.6456C12.2307 54.4361 13.0059 54.4358 13.9647 54.6448C15.1216 54.8969 15.9375 55.3858 16.4125 56.1116C16.8794 56.8247 16.9584 57.89 16.6495 59.3074C16.5813 59.62 16.496 59.9617 16.3933 60.3323C16.293 60.6925 16.1897 61.0412 16.0835 61.3783C15.9877 61.7177 15.9044 61.9998 15.8336 62.2245C15.7628 62.4493 15.7199 62.5709 15.7049 62.5895ZM11.042 57.9871C10.9716 58.3102 10.9214 58.6158 10.8913 58.904C10.8531 59.1795 10.8206 59.429 10.7937 59.6524L14.6306 60.4558C14.6946 60.2623 14.7654 60.0376 14.8431 59.7816C14.923 59.5152 14.9936 59.2412 15.0549 58.9598C15.1457 58.543 15.1964 58.2101 15.207 57.9613C15.2175 57.7125 15.2029 57.5292 15.1631 57.4114C15.1047 57.2786 14.9659 57.1391 14.7466 56.9931C14.5192 56.8344 14.1397 56.6971 13.6082 56.5813C13.2226 56.4972 12.8573 56.4449 12.5125 56.4243C12.1595 56.3911 11.8825 56.4344 11.6817 56.5544C11.5144 56.6708 11.3913 56.835 11.3124 57.0471C11.223 57.2569 11.1329 57.5702 11.042 57.9871Z" fill="#FBAD03"/>
<path d="M25.8072 38.9366C25.3313 39.606 24.7589 40.089 24.09 40.3856C23.4211 40.6822 22.6425 40.7373 21.7542 40.5508C20.8635 40.3495 19.8574 39.8501 18.7359 39.0529C17.7361 38.3421 16.9881 37.673 16.492 37.0454C15.9871 36.4117 15.6752 35.8104 15.5561 35.2415C15.4432 34.6639 15.4761 34.1114 15.6547 33.584C15.8395 33.048 16.1142 32.5235 16.4788 32.0105C16.6272 31.8019 16.8225 31.5547 17.0649 31.2689C17.3135 30.9745 17.5646 30.695 17.8182 30.4303C18.0693 30.1507 18.2783 29.9394 18.4454 29.7965L19.5898 30.8652C19.5193 30.946 19.4043 31.0802 19.2448 31.2678C19.0827 31.4405 18.9127 31.6337 18.7346 31.8474C18.5565 32.061 18.3921 32.2648 18.2412 32.4585C18.0817 32.6461 17.9617 32.7964 17.8814 32.9095C17.6033 33.3007 17.4025 33.6291 17.2791 33.8947C17.1557 34.1604 17.1134 34.3855 17.1523 34.5702C17.1788 34.7722 17.2797 35.0076 17.4552 35.2763C17.6306 35.545 17.9141 35.8643 18.3055 36.2341C18.6944 36.5891 19.2279 37.0077 19.906 37.4897C20.758 38.0954 21.4917 38.4992 22.1072 38.7012C22.7202 38.8883 23.1593 38.9518 23.4245 38.8917C23.7641 38.819 24.0915 38.561 24.4067 38.1176C24.6292 37.8046 24.8138 37.4713 24.9606 37.1176C25.0986 36.7577 25.2138 36.4208 25.3061 36.1068C25.3959 35.778 25.4585 35.515 25.4941 35.3178C25.5358 35.1119 25.5566 35.0089 25.5566 35.0089L27.0733 35.3607C27.0733 35.3607 27.0642 35.4655 27.0461 35.6751C27.0192 35.8786 26.9696 36.1508 26.8972 36.492C26.8249 36.8332 26.7023 37.2172 26.5297 37.6441C26.3571 38.0711 26.1162 38.5019 25.8072 38.9366Z" fill="#FBAD03"/>
<path d="M32.5695 30.5543L25.8526 21.6038L27.8213 20.0179L33.8692 23.9806L33.944 23.9204L31.3849 17.1473L33.3287 15.5815L40.6562 24.0402L39.2108 25.2045L33.4346 18.0849L33.3473 18.1552L35.8507 24.7061L34.2309 26.0109L28.3757 22.16L28.2885 22.2303L34.0149 29.39L32.5695 30.5543Z" fill="#FBAD03"/>
<path d="M49.871 19.7582C49.3119 19.9969 48.7535 20.1425 48.196 20.1949C47.6483 20.2431 47.0994 20.1527 46.5493 19.9236C46.009 19.6903 45.4823 19.2714 44.9691 18.667C44.4658 18.0584 43.9817 17.2097 43.5169 16.1207C43.0563 15.0416 42.7824 14.1147 42.6953 13.34C42.6138 12.5514 42.6778 11.8862 42.8873 11.3444C43.1024 10.7887 43.4189 10.3347 43.8368 9.98234C44.2603 9.616 44.7517 9.31348 45.3109 9.0748C45.8602 8.8403 46.4137 8.69684 46.9712 8.64443C47.5245 8.58221 48.0713 8.66774 48.6116 8.90103C49.1477 9.12451 49.6724 9.53845 50.1855 10.1429C50.6945 10.7375 51.1792 11.5743 51.6399 12.6535C52.1047 13.7424 52.3778 14.6812 52.4593 15.4699C52.5408 16.2585 52.4789 16.9286 52.2736 17.4802C52.0683 18.0317 51.7539 18.4906 51.3304 18.857C50.9069 19.2233 50.4204 19.5237 49.871 19.7582ZM49.2178 18.2278C49.6102 18.0603 49.9298 17.8717 50.1766 17.662C50.4193 17.4424 50.5744 17.1675 50.6421 16.837C50.7197 16.5024 50.6958 16.0661 50.5705 15.528C50.4411 14.9802 50.2005 14.2943 49.8487 13.4702C49.4928 12.6363 49.1639 11.9881 48.862 11.5254C48.5658 11.0488 48.27 10.7227 47.9748 10.5472C47.6851 10.3577 47.3792 10.2795 47.057 10.3127C46.7306 10.336 46.3663 10.4335 45.9641 10.6052C45.5619 10.7769 45.2395 10.9725 44.9968 11.1921C44.75 11.4018 44.5899 11.6789 44.5166 12.0233C44.4489 12.3538 44.4798 12.7929 44.6092 13.3407C44.7345 13.8787 44.9751 14.5647 45.331 15.3986C45.6828 16.2226 46.0117 16.8709 46.3177 17.3433C46.6196 17.806 46.9202 18.1299 47.2197 18.3153C47.515 18.4908 47.8237 18.5619 48.1459 18.5288C48.4681 18.4957 48.8254 18.3953 49.2178 18.2278Z" fill="#FBAD03"/>
<path d="M61.4317 16.0866L59.9019 6.59298L56.8311 7.14693L56.5688 5.55237L64.5415 4.24044L64.8039 5.83499L61.6702 6.30201L63.2789 15.7826L61.4317 16.0866Z" fill="#FBAD03"/>
<path d="M72.5028 15.0726L72.968 9.89302L73.3647 3.93788C73.3647 3.93788 73.4879 3.93671 73.7341 3.93437C73.9804 3.93204 74.3015 3.93015 74.6974 3.9287C75.104 3.92808 75.5368 3.93483 75.9957 3.94896C76.4653 3.96391 76.9181 3.98827 77.3542 4.02202C78.3964 4.10269 79.1799 4.4843 79.7048 5.16685C80.2297 5.84939 80.4427 6.82876 80.344 8.10494C80.2822 8.90255 80.1248 9.55368 79.8718 10.0583C79.6302 10.5532 79.3224 10.9359 78.9484 11.2065C78.5859 11.4673 78.187 11.645 77.7517 11.7397C77.3173 11.8238 76.8714 11.8481 76.4141 11.8127C76.0419 11.7839 75.6811 11.7453 75.3318 11.6968C74.9825 11.6484 74.7551 11.6147 74.6496 11.5959L74.3693 15.217L72.5028 15.0726ZM76.6124 10.2875C77.2079 10.3336 77.6084 10.2736 77.8139 10.1076C77.9743 9.97028 78.1012 9.71265 78.1946 9.33473C78.2881 8.95681 78.3595 8.44881 78.4089 7.81072C78.4492 7.28961 78.4531 6.89406 78.4205 6.62408C78.3879 6.35409 78.3385 6.16304 78.2723 6.05093C78.2176 5.92901 78.1603 5.83899 78.1006 5.78087C78.0205 5.71048 77.8704 5.64537 77.6504 5.58554C77.4418 5.5159 77.1833 5.46915 76.8749 5.44527C76.5346 5.41893 76.2036 5.40936 75.8821 5.41657C75.5713 5.4246 75.3189 5.43716 75.125 5.45425L74.7743 9.9847C74.8577 10.0126 75.0733 10.0613 75.4209 10.131C75.7792 10.2016 76.1764 10.2537 76.6124 10.2875Z" fill="#FBAD03"/>
<path d="M86.9006 17.1684L90.5751 6.6052L96.2873 8.59225L95.7564 10.1185L91.8227 8.71631L90.7169 11.6519L94.3588 12.9188L93.8436 14.3998L90.2017 13.1329L89.1891 16.2873L93.1438 17.6291L92.6129 19.1554L86.9006 17.1684Z" fill="#FBAD03"/>
<path d="M101.521 23.7212L106.778 15.6695L104.134 14.0127L105.013 12.6567L111.793 17.0516L110.914 18.4076L108.282 16.6442L103.092 24.7394L101.521 23.7212Z" fill="#FBAD03"/>
<path d="M110.394 30.4402L114.679 26.4244L118.459 22.7146L119.732 24.0433L116.739 26.91C116.887 27.0489 117.061 27.2073 117.261 27.3851C117.468 27.5706 117.679 27.7751 117.893 27.9985C118.439 28.5684 118.841 29.1429 119.101 29.7218C119.367 30.2934 119.419 30.8867 119.255 31.5018C119.098 32.1095 118.666 32.7528 117.957 33.4317C117.102 34.2507 116.241 34.6547 115.374 34.6436C114.521 34.6329 113.594 34.1037 112.59 33.0561C112.369 32.8251 112.133 32.5635 111.883 32.2714C111.64 31.9871 111.408 31.7068 111.188 31.4304C110.96 31.1615 110.772 30.9349 110.625 30.7507C110.478 30.5665 110.401 30.463 110.394 30.4402ZM116.816 29.1409C116.587 28.9021 116.362 28.6898 116.139 28.504C115.932 28.3185 115.743 28.1522 115.573 28.0052L112.764 30.74C112.889 30.9012 113.036 31.0854 113.205 31.2927C113.381 31.5077 113.569 31.7192 113.769 31.9272C114.064 32.2353 114.312 32.4632 114.512 32.6108C114.713 32.7585 114.873 32.8487 114.993 32.8814C115.136 32.9071 115.329 32.8698 115.572 32.7694C115.831 32.6693 116.157 32.4311 116.55 32.0548C116.835 31.7818 117.082 31.508 117.292 31.2333C117.516 30.959 117.635 30.7051 117.647 30.4715C117.644 30.2677 117.577 30.0739 117.445 29.89C117.321 29.6987 117.111 29.449 116.816 29.1409Z" fill="#FBAD03"/>
<path d="M124.379 52.0264C124.089 51.2578 124.008 50.5133 124.135 49.7927C124.262 49.0721 124.651 48.3954 125.302 47.7626C125.966 47.136 126.942 46.58 128.23 46.0946C129.378 45.6619 130.35 45.4149 131.148 45.3536C131.956 45.2886 132.629 45.3654 133.167 45.5842C133.709 45.813 134.149 46.1487 134.487 46.5913C134.829 47.0439 135.111 47.5646 135.333 48.1535C135.423 48.3931 135.519 48.6931 135.621 49.0538C135.726 49.4244 135.818 49.7888 135.896 50.1469C135.988 50.5113 136.046 50.8027 136.072 51.0212L134.546 51.374C134.518 51.2704 134.471 51.1001 134.405 50.863C134.352 50.6321 134.286 50.3832 134.209 50.1161C134.131 49.8491 134.054 49.5989 133.977 49.3656C133.91 49.1285 133.853 48.9451 133.804 48.8153C133.634 48.3662 133.474 48.0163 133.323 47.7656C133.171 47.5149 133.008 47.3542 132.833 47.2833C132.651 47.1925 132.399 47.1448 132.078 47.1404C131.757 47.136 131.334 47.1929 130.809 47.3111C130.297 47.4356 129.652 47.6446 128.873 47.9381C127.895 48.3068 127.151 48.6901 126.639 49.088C126.142 49.4921 125.844 49.821 125.746 50.0746C125.617 50.3969 125.648 50.8126 125.84 51.3216C125.975 51.6809 126.149 52.0202 126.36 52.3394C126.582 52.6549 126.797 52.9385 127.006 53.1904C127.229 53.4484 127.412 53.6472 127.556 53.7868C127.703 53.9363 127.777 54.0111 127.777 54.0111L126.639 55.073C126.639 55.073 126.557 55.007 126.393 54.8749C126.239 54.7391 126.041 54.546 125.798 54.2954C125.556 54.0449 125.305 53.7289 125.048 53.3473C124.79 52.9657 124.567 52.5254 124.379 52.0264Z" fill="#FBAD03"/>
<path d="M127.558 62.3163L138.734 61.7402L138.95 64.2589L132.286 67.0645L132.294 67.1601L139.343 68.8181L139.556 71.3049L128.448 72.6621L128.289 70.8129L137.42 69.9952L137.411 69.8836L130.578 68.3034L130.4 66.2311L136.864 63.5231L136.854 63.4115L127.717 64.1654L127.558 62.3163Z" fill="#FBAD03"/>
<path d="M126.856 82.6978C126.97 82.1006 127.161 81.5561 127.429 81.0643C127.695 80.583 128.076 80.1781 128.573 79.8496C129.068 79.5316 129.71 79.3284 130.498 79.2401C131.284 79.1622 132.258 79.2345 133.421 79.4568C134.574 79.677 135.496 79.9673 136.187 80.3275C136.887 80.7001 137.403 81.1246 137.735 81.6008C138.076 82.0895 138.276 82.6056 138.335 83.149C138.403 83.7049 138.38 84.2814 138.265 84.8786C138.153 85.4653 137.963 86.0046 137.696 86.4964C137.438 86.9902 137.062 87.3961 136.567 87.7142C136.082 88.0342 135.446 88.2383 134.658 88.3267C133.881 88.417 132.916 88.352 131.763 88.1317C130.6 87.9094 129.669 87.6119 128.969 87.2393C128.269 86.8666 127.748 86.4411 127.405 85.9629C127.062 85.4847 126.857 84.9676 126.789 84.4117C126.722 83.8558 126.744 83.2845 126.856 82.6978ZM128.49 83.0102C128.41 83.4293 128.388 83.7998 128.425 84.1216C128.471 84.4455 128.613 84.7277 128.849 84.9684C129.084 85.2195 129.459 85.4433 129.975 85.6397C130.502 85.8382 131.205 86.0215 132.085 86.1897C132.976 86.3599 133.697 86.4489 134.25 86.4568C134.811 86.4771 135.246 86.4138 135.557 86.2668C135.876 86.1322 136.111 85.9221 136.264 85.6363C136.426 85.3525 136.549 84.9958 136.631 84.5662C136.713 84.1367 136.731 83.76 136.684 83.4361C136.648 83.1142 136.507 82.8267 136.263 82.5736C136.026 82.333 135.645 82.1134 135.118 81.915C134.602 81.7186 133.898 81.5353 133.008 81.365C132.128 81.1968 131.406 81.1078 130.843 81.098C130.291 81.0901 129.854 81.1587 129.533 81.3037C129.223 81.4507 128.991 81.6671 128.839 81.9529C128.687 82.2387 128.571 82.5912 128.49 83.0102Z" fill="#FBAD03"/>
<path d="M123.448 94.339L132.179 98.3698L133.434 95.5128L134.903 96.1853L131.541 103.532L130.071 102.86L131.433 99.9992L122.669 96.0412L123.448 94.339Z" fill="#FBAD03"/>
<path d="M118.109 104.09L122.147 107.368L126.866 111.022C126.866 111.022 126.798 111.124 126.663 111.33C126.527 111.536 126.349 111.803 126.129 112.132C125.903 112.47 125.656 112.825 125.388 113.198C125.113 113.58 124.84 113.942 124.569 114.285C123.92 115.104 123.166 115.541 122.307 115.596C121.447 115.65 120.516 115.28 119.512 114.486C118.885 113.989 118.433 113.495 118.155 113.003C117.88 112.527 117.734 112.058 117.718 111.596C117.704 111.15 117.779 110.72 117.944 110.306C118.117 109.898 118.345 109.515 118.63 109.155C118.862 108.863 119.095 108.585 119.33 108.322C119.566 108.059 119.72 107.889 119.795 107.812L116.947 105.558L118.109 104.09ZM119.785 110.171C119.414 110.64 119.24 111.005 119.263 111.269C119.288 111.478 119.43 111.727 119.692 112.016C119.953 112.304 120.335 112.647 120.837 113.045C121.246 113.369 121.573 113.593 121.815 113.717C122.057 113.84 122.243 113.906 122.373 113.914C122.505 113.936 122.611 113.939 122.693 113.922C122.796 113.895 122.934 113.807 123.106 113.657C123.281 113.523 123.464 113.335 123.656 113.092C123.867 112.825 124.06 112.555 124.234 112.285C124.401 112.022 124.531 111.806 124.625 111.636L121.062 108.815C120.992 108.869 120.832 109.021 120.58 109.27C120.321 109.528 120.056 109.828 119.785 110.171Z" fill="#FBAD03"/>
<path d="M108.332 114.866L115.045 123.811L110.207 127.441L109.237 126.149L112.597 123.668L110.779 121.112L107.694 123.426L106.753 122.172L109.838 119.857L107.786 117.256L104.465 119.788L103.495 118.496L108.332 114.866Z" fill="#FBAD03"/>
<path d="M94.7335 123.338L98.4788 132.194L101.33 130.926L101.964 132.412L94.5324 135.584L93.8981 134.097L96.8306 132.898L93.0118 124.073L94.7335 123.338Z" fill="#FBAD03"/>
<path d="M84.2055 126.948L85.1453 132.745L86.1129 137.952L84.2999 138.267L83.5922 134.183C83.3943 134.229 83.1658 134.284 82.9067 134.351C82.6371 134.419 82.3499 134.48 82.0451 134.533C81.2674 134.668 80.566 134.681 79.941 134.573C79.3179 134.475 78.7969 134.186 78.3782 133.707C77.9613 133.238 77.669 132.52 77.5014 131.553C77.2992 130.386 77.4448 129.446 77.9382 128.733C78.4229 128.032 79.3799 127.557 80.8093 127.31C81.1246 127.255 81.4732 127.205 81.8552 127.161C82.2267 127.118 82.5886 127.082 82.9409 127.054C83.2914 127.015 83.5841 126.986 83.8189 126.967C84.0538 126.948 84.1826 126.941 84.2055 126.948ZM81.6985 133.001C82.0243 132.945 82.3263 132.876 82.6047 132.796C82.8743 132.727 83.1176 132.663 83.3347 132.604L82.6336 128.747C82.4303 128.761 82.1954 128.78 81.929 128.804C81.6521 128.831 81.3718 128.869 81.088 128.918C80.6676 128.991 80.3402 129.069 80.1058 129.153C79.8713 129.237 79.707 129.319 79.6129 129.401C79.5118 129.505 79.435 129.686 79.3823 129.944C79.3209 130.215 79.3367 130.618 79.4296 131.154C79.497 131.543 79.5861 131.901 79.697 132.228C79.7991 132.567 79.9436 132.808 80.1304 132.949C80.3012 133.06 80.4997 133.112 80.7259 133.105C80.9539 133.109 81.2781 133.074 81.6985 133.001Z" fill="#FBAD03"/>
</svg>
