<svg width="40" height="41" viewBox="0 0 40 41" fill="none" xmlns="http://www.w3.org/2000/svg">
<g clip-path="url(#clip0_47_95)">
<path fill-rule="evenodd" clip-rule="evenodd" d="M2.91667 5.5C2.14312 5.5 1.40125 5.80729 0.854272 6.35427C0.307291 6.90125 0 7.64312 0 8.41667L0 31.75C0 33.36 1.30667 34.6667 2.91667 34.6667H37.0833C37.8569 34.6667 38.5987 34.3594 39.1457 33.8124C39.6927 33.2654 40 32.5236 40 31.75V8.41667C40 7.64312 39.6927 6.90125 39.1457 6.35427C38.5987 5.80729 37.8569 5.5 37.0833 5.5H2.91667ZM2.5 8.41667C2.5 8.30616 2.5439 8.20018 2.62204 8.12204C2.70018 8.0439 2.80616 8 2.91667 8H37.0833C37.1938 8 37.2998 8.0439 37.378 8.12204C37.4561 8.20018 37.5 8.30616 37.5 8.41667V9.83667L20.2333 21.5033C20.1644 21.5499 20.0832 21.5748 20 21.5748C19.9168 21.5748 19.8356 21.5499 19.7667 21.5033L2.5 9.83667V8.41667ZM2.5 12.8533V31.75C2.5 31.98 2.68667 32.1667 2.91667 32.1667H37.0833C37.1938 32.1667 37.2998 32.1228 37.378 32.0446C37.4561 31.9665 37.5 31.8605 37.5 31.75V12.8533L21.6333 23.575C20.6467 24.2417 19.3533 24.2417 18.3667 23.575L2.5 12.8533Z" fill="#E5E5E5"/>
</g>
<defs>
<clipPath id="clip0_47_95">
<rect width="40" height="40" fill="white" transform="translate(0 0.5)"/>
</clipPath>
</defs>
</svg>
