<svg width="72" height="72" viewBox="0 0 72 72" fill="none" xmlns="http://www.w3.org/2000/svg">
<path d="M34.318 15.3481C35.8975 15.3481 37.178 14.0676 37.178 12.4881C37.178 10.9085 35.8975 9.62805 34.318 9.62805C32.7385 9.62805 31.458 10.9085 31.458 12.4881C31.458 14.0676 32.7385 15.3481 34.318 15.3481Z" fill="#FBAD03"/>
<path d="M28.599 24.7851L26.978 63.8691H30.124L33.364 40.0371H35.272L38.512 63.8691H41.658L40.038 24.7851C40.038 24.7851 40.228 28.6931 41.372 30.5051C41.953 31.4951 42.818 32.2878 43.8548 32.7806C44.8915 33.2734 46.0524 33.4436 47.187 33.2691C47.187 33.2691 51.477 32.6971 52.24 31.1721C52.3916 30.8943 52.471 30.583 52.471 30.2666C52.471 29.9501 52.3916 29.6388 52.24 29.3611C52.144 29.0751 49.666 30.0281 49.666 30.0281L46.901 30.5051L44.9 29.4561L43.66 28.0261L41.754 21.0671L38.417 19.8281L29.17 19.6381L25.93 23.8321L25.453 27.9311L23.833 29.0751L17.445 23.1651C17.445 23.1651 16.015 24.7851 16.969 26.1201C17.923 27.4551 20.591 31.1721 22.593 31.5541C23.3458 31.7702 24.1457 31.7587 24.892 31.5212C25.6383 31.2836 26.2976 30.8306 26.787 30.2191C27.828 28.584 28.4503 26.7177 28.599 24.7851Z" fill="#FBAD03"/>
<path d="M18.907 19C19.9602 19 20.814 18.1462 20.814 17.093C20.814 16.0398 19.9602 15.186 18.907 15.186C17.8538 15.186 17 16.0398 17 17.093C17 18.1462 17.8538 19 18.907 19Z" fill="#EA5A47"/>
<path d="M38.907 8.00004C39.9602 8.00004 40.814 7.14624 40.814 6.09304C40.814 5.03983 39.9602 4.18604 38.907 4.18604C37.8538 4.18604 37 5.03983 37 6.09304C37 7.14624 37.8538 8.00004 38.907 8.00004Z" fill="#92D3F5"/>
<path d="M52.907 28C53.9602 28 54.814 27.1462 54.814 26.093C54.814 25.0398 53.9602 24.186 52.907 24.186C51.8538 24.186 51 25.0398 51 26.093C51 27.1462 51.8538 28 52.907 28Z" fill="#B1CC33"/>
<path d="M34.5 15.3C36.1569 15.3 37.5 13.9569 37.5 12.3C37.5 10.6432 36.1569 9.30005 34.5 9.30005C32.8431 9.30005 31.5 10.6432 31.5 12.3C31.5 13.9569 32.8431 15.3 34.5 15.3Z" stroke="black" stroke-width="2" stroke-miterlimit="10"/>
<path d="M39.084 24.785L41.564 61.963C41.6054 62.1833 41.6006 62.4098 41.5498 62.628C41.4989 62.8463 41.4032 63.0516 41.2687 63.2309C41.1342 63.4102 40.9638 63.5595 40.7685 63.6694C40.5731 63.7792 40.3571 63.8472 40.134 63.869C39.6557 63.8161 39.2115 63.5958 38.8799 63.247C38.5483 62.8982 38.3507 62.4434 38.322 61.963L35.557 41.943C35.462 40.895 34.89 40.037 34.318 40.037C33.842 40.037 33.27 40.895 33.078 41.944L30.314 61.963C30.2854 62.4431 30.0881 62.8977 29.7569 63.2464C29.4257 63.5951 28.982 63.8157 28.504 63.869C28.2809 63.8472 28.0649 63.7792 27.8695 63.6694C27.6742 63.5595 27.5038 63.4102 27.3693 63.2309C27.2348 63.0516 27.1391 62.8463 27.0882 62.628C27.0374 62.4098 27.0326 62.1833 27.074 61.963L29.552 24.785" stroke="black" stroke-width="2" stroke-linecap="round" stroke-linejoin="round"/>
<path d="M18.113 23.8321L21.64 27.8351C23.356 29.8371 25.167 29.2651 25.548 26.6921L25.93 24.6901C26.406 22.1161 28.408 19.7331 30.505 19.5421C33.0393 19.256 35.5977 19.256 38.132 19.5421C40.229 19.8281 42.326 22.1161 42.707 24.6901L43.089 26.6921C43.565 29.2651 45.567 30.9821 47.664 30.4091C49.761 29.9331 51.477 29.4561 51.477 29.4561" stroke="black" stroke-width="2" stroke-linecap="round" stroke-linejoin="round"/>
</svg>
