<svg width="40" height="40" viewBox="0 0 40 40" fill="none" xmlns="http://www.w3.org/2000/svg">
<g clip-path="url(#clip0_23_28)">
<path fill-rule="evenodd" clip-rule="evenodd" d="M5 39.1667C5 38.7246 5.1756 38.3007 5.48816 37.9881C5.80072 37.6756 6.22464 37.5 6.66667 37.5H30C30.442 37.5 30.866 37.6756 31.1785 37.9881C31.4911 38.3007 31.6667 38.7246 31.6667 39.1667C31.6667 39.6087 31.4911 40.0326 31.1785 40.3452C30.866 40.6577 30.442 40.8333 30 40.8333H6.66667C6.22464 40.8333 5.80072 40.6577 5.48816 40.3452C5.1756 40.0326 5 39.6087 5 39.1667ZM5 29.1667C5 28.7246 5.1756 28.3007 5.48816 27.9881C5.80072 27.6756 6.22464 27.5 6.66667 27.5H43.3333C43.7754 27.5 44.1993 27.6756 44.5118 27.9881C44.8244 28.3007 45 28.7246 45 29.1667C45 29.6087 44.8244 30.0326 44.5118 30.3452C44.1993 30.6577 43.7754 30.8333 43.3333 30.8333H6.66667C6.22464 30.8333 5.80072 30.6577 5.48816 30.3452C5.1756 30.0326 5 29.6087 5 29.1667ZM5 19.1667C5 18.7246 5.1756 18.3007 5.48816 17.9882C5.80072 17.6756 6.22464 17.5 6.66667 17.5H43.3333C43.7754 17.5 44.1993 17.6756 44.5118 17.9882C44.8244 18.3007 45 18.7246 45 19.1667C45 19.6087 44.8244 20.0326 44.5118 20.3452C44.1993 20.6577 43.7754 20.8333 43.3333 20.8333H6.66667C6.22464 20.8333 5.80072 20.6577 5.48816 20.3452C5.1756 20.0326 5 19.6087 5 19.1667ZM18.3333 9.16667C18.3333 8.72464 18.5089 8.30072 18.8215 7.98816C19.134 7.6756 19.558 7.5 20 7.5H43.3333C43.7754 7.5 44.1993 7.6756 44.5118 7.98816C44.8244 8.30072 45 8.72464 45 9.16667C45 9.60869 44.8244 10.0326 44.5118 10.3452C44.1993 10.6577 43.7754 10.8333 43.3333 10.8333H20C19.558 10.8333 19.134 10.6577 18.8215 10.3452C18.5089 10.0326 18.3333 9.60869 18.3333 9.16667Z" fill="#E5E5E5"/>
</g>
<defs>
<clipPath id="clip0_23_28">
<rect width="40" height="40" fill="white"/>
</clipPath>
</defs>
</svg>
