<svg width="72" height="72" viewBox="0 0 72 72" fill="none" xmlns="http://www.w3.org/2000/svg">
<path d="M31.31 42.184C30.921 38.154 34.592 34.855 38.64 34.855C42.688 34.855 45.968 38.175 45.968 42.184C45.968 44.124 45.393 51.665 35.181 51.314C30.595 50.946 26.735 47.565 26.084 42.483C25.583 38.566 26.106 35.173 30.16 31.12C34.214 27.066 35.383 26.824 39.481 21.172C43.579 15.52 42.064 11.881 41.855 11.163C41.646 10.445 40.248 8.12598 37.655 8.12598C35.061 8.12598 33.811 10.895 33.473 12.039C33.134 13.184 32.746 15.484 33.379 19.917C33.854 23.237 41.435 52.207 42.362 56.52C42.452 56.934 42.52 57.352 42.558 57.77C42.561 57.8 42.586 58.535 42.586 58.535C42.5853 59.2362 42.4371 59.9295 42.151 60.5697C41.8649 61.2099 41.4474 61.7828 40.9255 62.2512C40.4036 62.7195 39.7891 63.0729 39.1217 63.2883C38.4544 63.5036 37.7492 63.5762 37.052 63.5014C36.3548 63.4265 35.6811 63.2058 35.0747 62.8536C34.4683 62.5014 33.9428 62.0256 33.5323 61.457C33.1218 60.8885 32.8355 60.24 32.6919 59.5536C32.5483 58.8673 32.5507 58.1584 32.699 57.473C32.699 57.473 33.021 56.364 33.597 56.182" stroke="#FBAD03" stroke-width="2" stroke-miterlimit="10" stroke-linecap="round" stroke-linejoin="round"/>
<path d="M33.947 59.146C35.0516 59.146 35.947 58.2506 35.947 57.146C35.947 56.0414 35.0516 55.146 33.947 55.146C32.8425 55.146 31.947 56.0414 31.947 57.146C31.947 58.2506 32.8425 59.146 33.947 59.146Z" fill="#FBAD03"/>
</svg>
