<svg width="44" height="44" viewBox="0 0 44 44" fill="none" xmlns="http://www.w3.org/2000/svg">
<g clip-path="url(#clip0_392_131)">
<path d="M17.5515 3.9931C27.245 1.78777 36.8908 7.85807 39.0961 17.5515C41.3015 27.2449 35.2312 36.8908 25.5377 39.0961C15.8443 41.3014 6.19845 35.2311 3.99312 25.5377C1.7878 15.8443 7.8581 6.19843 17.5515 3.9931ZM25.4452 9.52983C25.0788 9.59077 24.8011 9.88128 24.6405 10.3213L23.2762 15.4179C23.1463 16.0147 23.4212 16.5594 23.8858 16.8589L25.2349 17.708C25.3239 17.7855 25.3924 17.88 25.4196 17.9949C25.3693 19.7224 24.4332 21.5182 23.5405 22.8098C22.6479 24.1014 21.7543 25.7785 20.256 26.4685C20.0738 26.567 19.8399 26.6407 19.6712 26.543L18.0984 25.533C17.5816 25.2992 16.9072 25.2824 16.4987 25.6626L16.4773 25.6675L12.7288 29.2086C12.1838 29.7516 12.2932 30.5367 12.8548 30.9015L16.5103 33.1818C17.0535 33.5333 17.6731 33.552 18.2417 33.4234C20.7388 32.7761 22.8337 31.0016 24.4964 29.2896C27.1692 26.2308 29.4496 22.6725 30.4997 18.7614C30.874 17.1364 31.2799 15.0792 30.8289 13.4631C30.6819 12.85 30.3786 12.2855 29.8555 11.9878L26.1946 9.6839C25.9173 9.53907 25.6651 9.49327 25.4452 9.52983Z" fill="white"/>
</g>
<defs>
<clipPath id="clip0_392_131">
<rect width="36" height="36" fill="white" transform="matrix(-0.975083 0.221839 0.221839 0.975083 35.103 0)"/>
</clipPath>
</defs>
</svg>
