<svg width="30" height="30" viewBox="0 0 30 30" fill="none" xmlns="http://www.w3.org/2000/svg">
<path d="M17.0947 18.0527C18.7389 18.0527 20.3157 17.3996 21.4782 16.237C22.6408 15.0744 23.2939 13.4977 23.2939 11.8535C23.2939 10.2094 22.6408 8.63259 21.4782 7.47001C20.3157 6.30743 18.7389 5.6543 17.0947 5.6543H7.96875V7.5293H10.3092V16.1777H7.96875V18.0527H10.3092V20.625H7.96875V22.5H10.3092V25.7812H12.1842V22.5H17.8125V20.625H12.1842V18.0527H17.0947ZM12.1842 7.5293H17.0947C18.2416 7.5293 19.3415 7.98488 20.1524 8.79583C20.9634 9.60678 21.4189 10.7067 21.4189 11.8535C21.4189 13.0004 20.9634 14.1003 20.1524 14.9112C19.3415 15.7221 18.2416 16.1777 17.0947 16.1777H12.1842V7.5293Z" fill="#E5E5E5"/>
</svg>
