<svg width="72" height="72" viewBox="0 0 72 72" fill="none" xmlns="http://www.w3.org/2000/svg">
<path d="M45.304 45.616C47.756 45.616 49.056 46.159 50.475 47.022L50.49 46.998V58.898H21.507V46.998L21.425 46.848C22.805 46.086 24.013 45.616 26.295 45.616L26.385 45.604C26.385 45.604 26.663 57.448 35.302 58.564H36.152C44.792 57.448 45.07 45.604 45.07 45.604" fill="#3F3F3F"/>
<path d="M55.245 40.848L58.073 38.019L65.448 45.394L62.62 48.223L55.245 40.848Z" fill="#9B9B9A"/>
<path d="M53.622 40.5859C55.8311 40.5859 57.622 38.7951 57.622 36.5859C57.622 34.3768 55.8311 32.5859 53.622 32.5859C51.4129 32.5859 49.622 34.3768 49.622 36.5859C49.622 38.7951 51.4129 40.5859 53.622 40.5859Z" fill="#D0CFCE"/>
<path d="M58.026 42.7939C56.704 42.4289 56.182 40.9179 56.276 39.5559C54.706 40.9599 52.301 40.9219 50.794 39.4139C50.4225 39.0425 50.1279 38.6015 49.9269 38.1162C49.7258 37.6309 49.6224 37.1107 49.6224 36.5854C49.6224 36.0601 49.7258 35.54 49.9269 35.0547C50.1279 34.5693 50.4225 34.1284 50.794 33.7569C51.188 33.3646 51.6599 33.0592 52.1792 32.8606C52.6985 32.662 53.2538 32.5746 53.809 32.6039C53.345 31.7309 53.414 30.2629 53.031 28.7579C53.031 28.7579 52.604 28.4299 52.525 27.9759C52.4572 27.5641 52.3731 27.1551 52.273 26.7499C51.705 24.5199 50.987 18.9519 43.92 14.0569C41.498 12.3799 39.055 14.5889 39.055 14.5889L38.745 14.3599C38.745 14.3599 34.978 8.19094 28.28 13.5449C21.582 18.8999 20.494 24.0079 19.927 26.2379C19.359 28.4679 19.587 30.6519 17.77 30.8699C15.952 31.0879 15.042 33.9949 15.952 35.3799C16.862 36.7659 16.635 39.7419 14.705 40.2739C12.775 40.8059 11.883 44.5639 12.832 46.1559C13.402 47.2809 15.041 49.0459 17.789 50.6729C19.009 47.6349 21.577 44.9199 26.862 44.9199C30.032 47.0239 32.752 48.4799 35.8 48.4929C38.848 48.4799 41.567 47.0239 44.737 44.9199C50.165 44.9199 52.724 47.7429 53.904 50.8349C55.7937 50.1784 57.6608 49.4583 59.502 48.6759C62.366 47.4579 59.956 43.3259 58.026 42.7939Z" fill="#A57939"/>
<path d="M24.814 26.039C23.884 26.135 26.143 28.767 26.143 29.746C26.143 30.919 24.698 31.209 24.913 32.299C26.133 38.483 30.599 43.069 35.923 43.069C42.185 43.069 47.261 36.723 47.261 28.895C47.261 27.917 47.181 26.961 47.031 26.039C47.031 26.039 40.294 22.554 38.66 19.235V18.668C38.66 18.668 37.826 20.888 36.283 21.465L35.519 16.661C35.519 16.661 29.765 25.528 24.814 26.039Z" fill="#FADCBC"/>
<path d="M44.737 44.9201C41.567 47.0241 38.848 48.4801 35.8 48.4931C32.752 48.4801 30.032 47.0241 26.862 44.9191C14.862 44.9191 16.862 58.9151 16.862 58.9151L21.507 58.8911V46.9981L21.425 46.8481C22.805 46.0861 24.013 45.6161 26.295 45.6161L26.385 45.6041C26.385 45.6041 26.663 57.4481 35.302 58.5641H36.152C44.792 57.4481 45.07 45.6041 45.07 45.6041L45.305 45.6161C47.755 45.6161 49.056 46.1591 50.475 47.0221L50.49 46.9981V58.7391L54.738 58.7171C54.738 58.7171 56.738 44.9201 44.738 44.9201H44.737Z" fill="#FADCBC"/>
<path d="M41.923 27.0669C41.9227 27.5976 41.7117 28.1065 41.3362 28.4816C40.9608 28.8566 40.4517 29.0672 39.921 29.0669C39.3903 29.0667 38.8814 28.8556 38.5064 28.4802C38.1313 28.1047 37.9207 27.5956 37.921 27.0649C37.9213 26.5342 38.1323 26.0254 38.5078 25.6503C38.8832 25.2752 39.3923 25.0647 39.923 25.0649C40.4537 25.0652 40.9626 25.2763 41.3376 25.6517C41.7127 26.0272 41.9233 26.5362 41.923 27.0669Z" fill="black"/>
<path d="M33.923 27.0669C33.9227 27.5976 33.7117 28.1065 33.3362 28.4816C32.9608 28.8566 32.4517 29.0672 31.921 29.0669C31.3903 29.0667 30.8814 28.8556 30.5064 28.4802C30.1313 28.1047 29.9207 27.5956 29.921 27.0649C29.9211 26.8022 29.973 26.542 30.0737 26.2993C30.1744 26.0565 30.3219 25.836 30.5078 25.6503C30.6937 25.4646 30.9144 25.3173 31.1572 25.2169C31.4 25.1164 31.6602 25.0648 31.923 25.0649C32.1858 25.0651 32.446 25.117 32.6887 25.2176C32.9314 25.3183 33.1519 25.4658 33.3376 25.6517C33.5233 25.8376 33.6706 26.0583 33.7711 26.3011C33.8715 26.5439 33.9231 26.8042 33.923 27.0669Z" fill="black"/>
<path d="M35.922 37.07C34.771 37.07 33.619 36.783 32.475 36.211C32.2378 36.0923 32.0574 35.8842 31.9736 35.6326C31.8897 35.3809 31.9093 35.1062 32.028 34.869C32.1467 34.6317 32.3547 34.4514 32.6064 34.3675C32.8581 34.2837 33.1328 34.3033 33.37 34.422C35.088 35.282 36.757 35.282 38.475 34.422C38.5925 34.3632 38.7205 34.3282 38.8516 34.3189C38.9826 34.3095 39.1143 34.3261 39.2389 34.3677C39.3636 34.4092 39.4788 34.4749 39.5781 34.561C39.6774 34.6471 39.7587 34.7519 39.8175 34.8695C39.8763 34.987 39.9113 35.115 39.9206 35.246C39.9299 35.3771 39.9133 35.5087 39.8718 35.6334C39.8302 35.7581 39.7645 35.8733 39.6784 35.9726C39.5923 36.0719 39.4875 36.1532 39.37 36.212C38.226 36.783 37.074 37.069 35.923 37.069L35.922 37.07Z" fill="black"/>
<path d="M25.008 32.2799C26.351 38.2359 30.728 42.5999 35.923 42.5999C40.893 42.5999 45.118 38.6019 46.648 33.0359" stroke="black" stroke-width="2" stroke-miterlimit="10" stroke-linecap="round" stroke-linejoin="round"/>
<path d="M54.737 57.9199C54.737 57.9199 56.737 44.9199 44.737 44.9199C41.546 47.0469 38.811 48.5179 35.737 48.5119H35.862C32.789 48.5179 30.054 47.0469 26.862 44.9199C14.862 44.9199 16.862 57.9199 16.862 57.9199" stroke="black" stroke-width="2" stroke-miterlimit="10" stroke-linecap="round" stroke-linejoin="round"/>
<path d="M55.245 40.8479L58.073 38.0189L65.448 45.3939L62.62 48.2229L55.245 40.8479Z" stroke="black" stroke-width="1.99998" stroke-miterlimit="10" stroke-linecap="round" stroke-linejoin="round"/>
<path d="M53.622 40.5859C55.8311 40.5859 57.622 38.7951 57.622 36.5859C57.622 34.3768 55.8311 32.5859 53.622 32.5859C51.4129 32.5859 49.622 34.3768 49.622 36.5859C49.622 38.7951 51.4129 40.5859 53.622 40.5859Z" stroke="black" stroke-width="2" stroke-miterlimit="10" stroke-linecap="round" stroke-linejoin="round"/>
<path d="M64.252 46.9919L67.098 49.8379" stroke="black" stroke-width="2" stroke-miterlimit="10" stroke-linecap="round" stroke-linejoin="round"/>
<path d="M58.853 44.7889V58.7889" stroke="black" stroke-width="2" stroke-miterlimit="10" stroke-linecap="round" stroke-linejoin="round"/>
<path d="M38.66 14.672C38.66 14.672 35.037 8.50295 28.595 13.857C22.153 19.211 21.106 24.32 20.56 26.55C20.015 28.78 20.234 30.964 18.486 31.182C16.738 31.401 15.863 34.307 16.738 35.692C17.612 37.078 17.394 40.054 15.538 40.586C13.682 41.118 12.044 44.284 14.118 46.468" stroke="black" stroke-width="2" stroke-miterlimit="10" stroke-linecap="round" stroke-linejoin="round"/>
<path d="M38.958 14.3889C38.958 14.3889 41.308 12.1799 43.638 13.8569C50.435 18.7529 51.126 24.3199 51.672 26.5499C51.773 26.9639 51.848 27.3769 51.914 27.7759C51.99 28.2299 52.054 28.6659 52.132 29.0659" stroke="black" stroke-width="2" stroke-miterlimit="10" stroke-linecap="round" stroke-linejoin="round"/>
<path d="M47.201 33.475C45.236 31.946 47.158 26.55 47.158 26.55C44.93 26.067 38.943 18.384 38.943 18.384C38.943 18.384 38.248 20.591 36.283 21.464L35.519 16.661C35.519 16.661 29.269 25.63 24.479 26.55C24.479 26.55 28.094 30.855 24.6 32.602C21.106 34.349 22.047 37.515 23.576 37.842" stroke="black" stroke-width="2" stroke-miterlimit="10" stroke-linecap="round" stroke-linejoin="round"/>
<path d="M45.07 44.908C45.07 44.908 44.792 56.752 36.152 57.866H35.302C26.662 56.752 26.384 44.908 26.384 44.908" stroke="black" stroke-width="2" stroke-miterlimit="10" stroke-linecap="round" stroke-linejoin="round"/>
<path d="M21.507 46.3009V57.9179" stroke="black" stroke-width="2" stroke-miterlimit="10" stroke-linecap="round" stroke-linejoin="round"/>
<path d="M50.49 46.3009V57.9749" stroke="black" stroke-width="2" stroke-miterlimit="10" stroke-linecap="round" stroke-linejoin="round"/>
</svg>
