<?xml version="1.0" encoding="utf-8"?><svg viewBox="0 0 40 40" xmlns="http://www.w3.org/2000/svg" xmlns:xlink="http://www.w3.org/1999/xlink"><style>:root>svg{display:none}:root>svg:target{display:block}</style><svg fill="snow" viewBox="0 0 40 40" id="sprite--icon-instagram" xmlns="http://www.w3.org/2000/svg"><path d="M20 0c-5.433 0-6.112.025-8.245.12-2.13.1-3.58.435-4.855.93a9.794 9.794 0 00-3.543 2.307A9.758 9.758 0 001.05 6.9C.555 8.175.218 9.625.12 11.755.02 13.888 0 14.567 0 20s.025 6.112.12 8.245c.1 2.128.435 3.58.93 4.855a9.808 9.808 0 002.307 3.543A9.78 9.78 0 006.9 38.95c1.277.493 2.727.832 4.855.93 2.133.1 2.812.12 8.245.12s6.112-.025 8.245-.12c2.128-.1 3.58-.437 4.855-.93a9.83 9.83 0 003.543-2.307A9.765 9.765 0 0038.95 33.1c.493-1.275.832-2.727.93-4.855.1-2.133.12-2.812.12-8.245s-.025-6.112-.12-8.245c-.1-2.128-.437-3.582-.93-4.855a9.816 9.816 0 00-2.307-3.543A9.744 9.744 0 0033.1 1.05C31.825.555 30.373.218 28.245.12 26.112.02 25.433 0 20 0zm0 3.6c5.338 0 5.975.027 8.083.118 1.95.092 3.009.415 3.712.692.937.362 1.6.795 2.303 1.493a6.178 6.178 0 011.494 2.302c.273.703.6 1.762.688 3.712.095 2.11.117 2.743.117 8.083s-.025 5.975-.124 8.083c-.101 1.95-.426 3.009-.701 3.712-.374.937-.799 1.6-1.499 2.303-.698.699-1.373 1.132-2.3 1.494-.7.273-1.775.6-3.725.688-2.123.095-2.748.117-8.098.117-5.352 0-5.977-.025-8.098-.124-1.952-.101-3.027-.426-3.727-.701-.948-.374-1.6-.799-2.298-1.499-.702-.698-1.15-1.373-1.5-2.3-.275-.7-.599-1.775-.7-3.725-.075-2.1-.102-2.748-.102-8.073 0-5.327.027-5.977.102-8.102.101-1.95.425-3.023.7-3.723.35-.95.798-1.6 1.5-2.302.698-.698 1.35-1.148 2.298-1.496.7-.277 1.752-.602 3.702-.702 2.125-.075 2.75-.1 8.098-.1L20 3.6zm0 6.13c-5.675 0-10.27 4.6-10.27 10.27 0 5.675 4.6 10.27 10.27 10.27 5.675 0 10.27-4.6 10.27-10.27 0-5.675-4.6-10.27-10.27-10.27zm0 16.937A6.665 6.665 0 0113.333 20 6.665 6.665 0 0120 13.333 6.665 6.665 0 0126.667 20 6.665 6.665 0 0120 26.667zM33.077 9.325c0 1.325-1.077 2.4-2.4 2.4a2.402 2.402 0 01-2.4-2.4 2.401 2.401 0 012.4-2.398 2.401 2.401 0 012.4 2.398z"/></svg><svg fill="snow" viewBox="0 0 40 40" id="sprite--icon-odnoklassniki" xmlns="http://www.w3.org/2000/svg"><path d="M24.175 29.067a19.333 19.333 0 006-2.484 3.027 3.027 0 00-3.225-5.121 13.11 13.11 0 01-13.9 0 3.023 3.023 0 00-4.167.941c0 .004 0 .007-.003.009a3.02 3.02 0 00.945 4.166l.003.004c1.842 1.158 3.87 2 5.994 2.48l-5.775 5.775A2.993 2.993 0 0010 39.065l.05.05c.573.59 1.35.883 2.123.883.775 0 1.55-.293 2.125-.883L20 33.442l5.673 5.676a3.026 3.026 0 004.277-.075 3.026 3.026 0 000-4.2l-5.775-5.776zM20 20.647c5.7-.007 10.317-4.624 10.325-10.322C30.325 4.633 25.692 0 20 0 14.308 0 9.675 4.633 9.675 10.328c.008 5.7 4.627 10.317 10.325 10.32v-.001zm0-14.595a4.28 4.28 0 014.273 4.275A4.277 4.277 0 0120 14.602a4.281 4.281 0 01-4.275-4.274A4.284 4.284 0 0120 6.05v.002z"/></svg><svg fill="snow" viewBox="0 0 40 40" id="sprite--icon-vk" xmlns="http://www.w3.org/2000/svg"><g clip-path="url(#cclip0_23_91)"><path d="M19.502 31.285h2.395s.721-.078 1.09-.473c.35-.369.35-1.05.35-1.05s-.052-3.212 1.448-3.684c1.478-.468 3.353 3.1 5.352 4.472 1.526 1.048 2.675.823 2.675.823l5.351-.073s2.804-.175 1.479-2.377c-.102-.175-.752-1.625-3.952-4.6-3.353-3.101-2.903-2.601 1.127-7.978 2.448-3.275 3.45-5.277 3.125-6.127-.277-.8-2.1-.601-2.1-.601l-6.004.051s-.45-.051-.775.15c-.325.199-.523.652-.523.652s-.953 2.548-2.227 4.7c-2.705 4.548-3.78 4.798-4.205 4.498-1.006-.651-.748-2.633-.748-4.053 0-4.402.673-6.25-1.302-6.725-.65-.152-1.135-.25-2.808-.277-2.15-.023-3.963.017-4.992.519-.675.338-1.2 1.086-.898 1.125.4.05 1.298.243 1.773.895.625.843.599 2.726.599 2.726s.351 5.194-.824 5.839c-.825.436-1.925-.467-4.325-4.594-1.225-2.1-2.151-4.45-2.151-4.45s-.175-.426-.499-.676c-.378-.275-.928-.375-.928-.375l-5.725.05s-.85.026-1.148.4c-.277.325-.027 1.025-.027 1.025s4.477 10.478 9.553 15.755c4.65 4.836 9.927 4.525 9.927 4.525l-.083-.092z"/></g><defs><clipPath id="cclip0_23_91"><path fill="#fff" d="M0 0h40v40H0z"/></clipPath></defs></svg></svg>