<svg width="35" height="36" viewBox="0 0 35 36" fill="none" xmlns="http://www.w3.org/2000/svg">
<path fill-rule="evenodd" clip-rule="evenodd" d="M30.8757 1.13971C30.4929 0.749406 30.0333 0.446635 29.5273 0.251457C29.0213 0.0562782 28.4805 -0.0268501 27.9407 0.00758035C27.4009 0.0420108 26.8744 0.193214 26.3961 0.451169C25.9178 0.709125 25.4987 1.06794 25.1665 1.50384L21.24 6.65538C20.5204 7.60035 20.2666 8.83127 20.551 9.99294L21.7475 14.8853C21.8094 15.1387 21.806 15.4042 21.7378 15.6559C21.6696 15.9075 21.5388 16.1369 21.3581 16.3218L15.9836 21.8107C15.8024 21.9955 15.5774 22.1293 15.3306 22.199C15.0837 22.2687 14.8234 22.2719 14.5749 22.2083L9.78664 20.9863C9.22531 20.843 8.63942 20.8318 8.07326 20.9538C7.5071 21.0757 6.97549 21.3274 6.51861 21.69L1.4744 25.6978C-0.338985 27.1387 -0.50523 29.8753 1.11784 31.5307L3.37965 33.8406C4.99835 35.4937 7.41765 36.2198 9.67289 35.4088C15.4451 33.3347 20.686 29.9598 25.0068 25.5347C29.3395 21.1226 32.644 15.771 34.6752 9.87677C35.4671 7.57578 34.7562 5.10277 33.1375 3.44963L30.8757 1.13971Z" fill="#E5E5E5"/>
</svg>
