<svg width="72" height="72" viewBox="0 0 72 72" fill="none" xmlns="http://www.w3.org/2000/svg">
<path d="M34.059 12.726C35.7159 12.726 37.059 11.3828 37.059 9.72595C37.059 8.0691 35.7159 6.72595 34.059 6.72595C32.4021 6.72595 31.059 8.0691 31.059 9.72595C31.059 11.3828 32.4021 12.726 34.059 12.726Z" fill="#FBAD03"/>
<path d="M17.809 24.451C18.667 26.072 19.525 25.881 20.097 25.691L29.153 22.641L34.873 19.971L36.779 21.21L38.4 25.595L35.826 27.883L26.293 34.461L11.994 40.276L12.948 43.136L30.869 38.369L38.686 35.509L41.26 47.521L42.309 62.201H45.169L46.313 45.995V31.696L45.359 18.35L43.452 16.444L49.267 13.679L56.035 9.38896C56.035 9.38896 57.179 8.53096 56.321 6.43396L51.364 9.38996L42.022 14.347L37.446 15.491L33.252 17.779L30.488 19.399L24.958 21.973L17.809 24.451Z" fill="#FBAD03"/>
<path d="M33.919 12.726C35.4985 12.726 36.779 11.4455 36.779 9.86598C36.779 8.28645 35.4985 7.00598 33.919 7.00598C32.3395 7.00598 31.059 8.28645 31.059 9.86598C31.059 11.4455 32.3395 12.726 33.919 12.726Z" stroke="black" stroke-width="2" stroke-miterlimit="10"/>
<path d="M42.499 33.889L32.68 37.606C31.727 37.988 30.106 38.464 29.058 38.75L14.758 42.564C14.3271 42.7269 13.8501 42.7188 13.4249 42.5414C12.9997 42.3641 12.6585 42.0308 12.471 41.61C12.185 40.848 12.757 39.894 13.805 39.418L24.577 35.033C25.7382 34.5237 26.8545 33.9176 27.914 33.221L34.301 28.836C35.159 28.264 36.493 27.216 37.161 26.644C37.5074 26.2447 37.7495 25.7659 37.8659 25.2503C37.9823 24.7347 37.9693 24.1983 37.828 23.689L37.542 22.831C37.2006 21.9184 36.6451 21.1011 35.922 20.448C35.5894 20.2834 35.2707 20.0921 34.969 19.876" stroke="black" stroke-width="2" stroke-linecap="round" stroke-linejoin="round"/>
<path d="M38.686 35.51L40.783 45.71C40.973 46.758 41.26 48.474 41.355 49.522L42.117 60.294C42.213 61.343 42.88 62.201 43.643 62.201C44.0894 62.1308 44.4933 61.8963 44.7755 61.5434C45.0577 61.1905 45.1977 60.7449 45.168 60.294L46.121 47.902C46.216 46.853 46.216 45.137 46.216 44.089V33.603C46.216 32.554 46.121 30.838 46.121 29.79L45.454 20.257C45.2782 19.0675 44.7841 17.9477 44.024 17.016L41.545 14.442" stroke="black" stroke-width="2" stroke-linecap="round" stroke-linejoin="round"/>
<path d="M55.559 6.91101L49.839 10.629C48.7774 11.2947 47.6611 11.8688 46.502 12.345L42.975 13.679C42.022 14.061 40.401 14.633 39.353 14.919L36.779 15.681C35.5676 16.0648 34.4133 16.6097 33.347 17.301L30.677 19.208C29.6158 19.8737 28.4997 20.4478 27.341 20.924L18.667 24.07" stroke="black" stroke-width="2" stroke-linecap="round" stroke-linejoin="round"/>
<path d="M29.922 9.52004C29.922 9.52004 29.264 9.49604 29.05 9.90804C28.797 10.392 29.04 11.703 28.8 12.415C28.5736 13.1233 28.1189 13.7366 27.507 14.159" stroke="black" stroke-width="2" stroke-linecap="round" stroke-linejoin="round"/>
</svg>
