<svg width="40" height="40" fill="none" xmlns="http://www.w3.org/2000/svg"><path d="M24.175 29.067a19.333 19.333 0 006-2.484 3.027 3.027 0 00-3.225-5.121 13.11 13.11 0 01-13.9 0 3.023 3.023 0 00-4.167.941c0 .004 0 .007-.003.009a3.02 3.02 0 00.945 4.166l.003.004c1.842 1.158 3.87 2 5.994 2.48l-5.775 5.775A2.993 2.993 0 0010 39.065l.05.05c.573.59 1.35.883 2.123.883.775 0 1.55-.293 2.125-.883L20 33.442l5.673 5.676a3.026 3.026 0 004.277-.075 3.026 3.026 0 000-4.2l-5.775-5.776zM20 20.647c5.7-.007 10.317-4.624 10.325-10.322C30.325 4.633 25.692 0 20 0 14.308 0 9.675 4.633 9.675 10.328c.008 5.7 4.627 10.317 10.325 10.32v-.001zm0-14.595a4.28 4.28 0 014.273 4.275A4.277 4.277 0 0120 14.602a4.281 4.281 0 01-4.275-4.274A4.284 4.284 0 0120 6.05v.002z" fill="#E5E5E5"/></svg>