<svg width="40" height="40" fill="none" xmlns="http://www.w3.org/2000/svg"><g clip-path="url(#clip0_23_91)"><path d="M19.502 31.285h2.395s.721-.078 1.09-.473c.35-.369.35-1.05.35-1.05s-.052-3.212 1.448-3.684c1.478-.468 3.353 3.1 5.352 4.472 1.526 1.048 2.675.823 2.675.823l5.351-.073s2.804-.175 1.479-2.377c-.102-.175-.752-1.625-3.952-4.6-3.353-3.101-2.903-2.601 1.127-7.978 2.448-3.275 3.45-5.277 3.125-6.127-.277-.8-2.1-.601-2.1-.601l-6.004.051s-.45-.051-.775.15c-.325.199-.523.652-.523.652s-.953 2.548-2.227 4.7c-2.705 4.548-3.78 4.798-4.205 4.498-1.006-.651-.748-2.633-.748-4.053 0-4.402.673-6.25-1.302-6.725-.65-.152-1.135-.25-2.808-.277-2.15-.023-3.963.017-4.992.519-.675.338-1.2 1.086-.898 1.125.4.05 1.298.243 1.773.895.625.843.599 2.726.599 2.726s.351 5.194-.824 5.839c-.825.436-1.925-.467-4.325-4.594-1.225-2.1-2.151-4.45-2.151-4.45s-.175-.426-.499-.676c-.378-.275-.928-.375-.928-.375l-5.725.05s-.85.026-1.148.4c-.277.325-.027 1.025-.027 1.025s4.477 10.478 9.553 15.755c4.65 4.836 9.927 4.525 9.927 4.525l-.083-.092z" fill="#E5E5E5"/></g><defs><clipPath id="clip0_23_91"><path fill="#fff" d="M0 0h40v40H0z"/></clipPath></defs></svg>