<svg width="144" height="144" fill="none" xmlns="http://www.w3.org/2000/svg"><path d="M69.976 128.025c.821.021 1.541.227 2.161.616.62.389 1.1 1.005 1.441 1.846.33.851.478 1.964.442 3.34-.031 1.226-.169 2.22-.413 2.982-.243.773-.568 1.368-.974 1.784a3.178 3.178 0 01-1.43.843 6.217 6.217 0 01-1.766.195c-.255-.006-.57-.031-.942-.072a17.77 17.77 0 01-1.116-.157 7.297 7.297 0 01-.876-.166l.248-1.547c.106.014.281.034.526.062.234.038.49.071.766.1.276.028.537.051.782.068.245.027.437.043.575.047.48.012.865-.005 1.154-.051.29-.046.5-.136.631-.272.153-.134.292-.35.417-.645.125-.296.232-.709.32-1.24.077-.521.127-1.197.148-2.029.027-1.045-.048-1.879-.224-2.503-.187-.613-.379-1.012-.577-1.199-.25-.241-.647-.369-1.19-.383a5.057 5.057 0 00-1.14.099c-.375.086-.719.179-1.03.278a9.956 9.956 0 00-.76.284l-.292.121-.554-1.455.276-.153c.183-.091.437-.202.76-.333.324-.13.71-.243 1.162-.338.45-.095.942-.136 1.475-.122zm-10.729-.931l-3.676 10.57-2.415-.748-.089-7.23-.092-.029-4.19 5.905-2.385-.739 2.928-10.801 1.772.549-2.682 8.767.107.033 4.038-5.734 1.987.615.073 7.008.107.033 2.744-8.748 1.773.549zm-18.617-8.327c.51.33.943.712 1.298 1.146.346.427.577.933.694 1.517.108.579.055 1.25-.16 2.013-.224.757-.658 1.633-1.302 2.626-.638.985-1.254 1.73-1.848 2.234-.61.508-1.197.826-1.763.955a3.3 3.3 0 01-1.66-.027 5.583 5.583 0 01-1.576-.717 5.518 5.518 0 01-1.284-1.137 3.18 3.18 0 01-.703-1.504c-.114-.57-.063-1.236.151-1.999.21-.754.633-1.624 1.272-2.608.643-.994 1.27-1.745 1.879-2.253.608-.507 1.2-.83 1.771-.968a3.319 3.319 0 011.67.014c.54.147 1.06.383 1.562.708zm-.905 1.396a3.723 3.723 0 00-1.004-.479 1.485 1.485 0 00-.944.074c-.322.122-.67.386-1.047.79-.382.413-.817.996-1.304 1.748-.493.761-.847 1.395-1.063 1.904-.23.512-.335.939-.316 1.282.005.346.11.644.318.893.201.257.486.505.853.743s.709.396 1.027.475c.311.088.63.066.957-.066.312-.128.66-.399 1.042-.812.376-.404.81-.987 1.304-1.748.487-.752.842-1.386 1.063-1.904.215-.509.316-.939.303-1.291a1.478 1.478 0 00-.34-.888 3.762 3.762 0 00-.849-.721zm-8.595-8.938l-7.022 6.569 2.174 2.239-1.177 1.108-5.539-5.883 1.177-1.107 2.136 2.339 6.968-6.628 1.283 1.363zm-7.022-8.619l-4.556 2.506-5.163 2.995-.209-.305c-.14-.203-.32-.468-.542-.796-.228-.337-.464-.7-.708-1.088a29.76 29.76 0 01-.698-1.168c-.515-.91-.636-1.773-.363-2.589.274-.817.967-1.54 2.081-2.17.696-.395 1.325-.628 1.885-.7.545-.075 1.034-.034 1.467.126.42.155.79.386 1.111.695.312.313.581.67.807 1.069a21.502 21.502 0 01.805 1.585l3.161-1.789.922 1.629zm-6.264-.738c-.294-.52-.567-.819-.82-.897-.203-.056-.488-.018-.854.116-.365.133-.827.358-1.384.673-.454.257-.785.475-.99.653-.206.177-.337.325-.393.443a.878.878 0 00-.129.293c-.013.106.017.266.09.482.058.212.164.453.316.722.168.297.345.577.53.84.18.253.332.456.455.607l3.954-2.238a10.231 10.231 0 00-.775-1.694zM17.81 89.49L6.993 92.34l-1.54-5.849 1.563-.411 1.032 4.046 3.053-.721-.982-3.729 1.516-.4.982 3.73 3.183-.921-1.095-4.03 1.563-.412 1.54 5.849zm-2.726-15.788l-9.615.133.101 3.12-1.615.027-.14-8.079 1.616-.028.007 3.169 9.614-.214.032 1.872zm.621-11.112L9.98 61.276 4.793 60.21l.392-1.797 4.049.882c.033-.2.067-.433.103-.698.038-.276.09-.564.156-.867.168-.77.42-1.426.755-1.964.326-.54.79-.914 1.391-1.121.592-.21 1.367-.21 2.326-.001 1.157.252 1.973.74 2.448 1.467.466.713.545 1.778.236 3.195-.068.313-.153.655-.256 1.025-.1.36-.203.71-.31 1.046-.095.34-.179.622-.25.846-.07.225-.113.347-.128.366zm-4.663-4.603c-.07.323-.12.629-.15.917-.039.275-.071.525-.098.748l3.837.804c.064-.194.134-.418.212-.674.08-.267.15-.54.212-.822.09-.417.141-.75.152-.999.01-.248-.004-.432-.044-.55-.058-.132-.197-.272-.416-.418-.228-.159-.607-.296-1.139-.412a7.159 7.159 0 00-1.096-.157c-.353-.033-.63.01-.83.13a1.01 1.01 0 00-.37.493c-.089.21-.18.523-.27.94zm14.765-19.05c-.476.669-1.048 1.152-1.717 1.449-.669.296-1.448.351-2.336.165-.89-.202-1.897-.7-3.018-1.498-1-.71-1.748-1.38-2.244-2.008-.505-.633-.817-1.235-.936-1.803a3.18 3.18 0 01.099-1.658c.184-.536.46-1.06.824-1.574.148-.208.344-.455.586-.741.248-.294.5-.574.753-.839.251-.28.46-.49.627-.633l1.145 1.068c-.07.081-.186.215-.345.403a13.16 13.16 0 00-.51.58 24.44 24.44 0 00-.494.61 7.043 7.043 0 00-.962 1.437c-.123.265-.166.49-.127.675.027.202.128.438.303.706.176.269.46.588.85.958.39.355.923.774 1.601 1.256.852.605 1.586 1.01 2.201 1.211.613.187 1.052.25 1.317.19.34-.072.668-.33.983-.773.222-.313.407-.647.554-1 .138-.36.253-.697.345-1.011.09-.329.152-.592.188-.79l.063-.308 1.516.352-.027.314c-.027.204-.076.476-.149.817a6.992 6.992 0 01-.367 1.152 6.351 6.351 0 01-.723 1.293zm6.763-8.383l-6.717-8.95 1.968-1.586 6.048 3.963.075-.06-2.56-6.774 1.945-1.565 7.327 8.458-1.445 1.165-5.776-7.12-.088.07 2.504 6.551-1.62 1.305-5.855-3.851-.088.07 5.727 7.16-1.446 1.164zm17.301-10.796a5.584 5.584 0 01-1.675.437 3.448 3.448 0 01-1.647-.271c-.54-.234-1.067-.653-1.58-1.257-.503-.609-.987-1.457-1.452-2.546-.46-1.08-.735-2.006-.822-2.781-.081-.789-.017-1.454.192-1.996.215-.555.532-1.01.95-1.362a5.585 5.585 0 011.474-.907 5.531 5.531 0 011.66-.43 3.18 3.18 0 011.64.256c.537.224 1.061.637 1.575 1.242.508.595.993 1.431 1.454 2.51.465 1.09.738 2.028.82 2.817.08.789.019 1.459-.186 2.01a3.315 3.315 0 01-.944 1.377c-.423.366-.91.667-1.459.901zm-.653-1.53c.392-.168.712-.356.959-.566a1.49 1.49 0 00.465-.825c.078-.335.054-.77-.072-1.309-.129-.548-.37-1.234-.721-2.058-.356-.834-.685-1.482-.987-1.945-.296-.476-.592-.802-.887-.978a1.378 1.378 0 00-.918-.234c-.326.023-.69.12-1.093.292-.402.172-.724.367-.967.587a1.45 1.45 0 00-.48.831c-.068.33-.037.77.092 1.318.125.538.366 1.224.722 2.058.352.824.68 1.472.987 1.944.302.463.602.787.902.972.295.176.604.247.926.214.322-.033.68-.134 1.072-.301zm12.214-2.141l-1.53-9.494-3.07.554-.263-1.595L64.54 4.24l.263 1.595-3.134.467 1.609 9.48-1.847.305zm11.071-1.014l.465-5.18.397-5.955.37-.004c.245-.002.567-.004.962-.005.407 0 .84.006 1.299.02.47.015.922.04 1.358.073 1.042.08 1.826.462 2.35 1.145.526.682.739 1.662.64 2.938-.062.798-.22 1.449-.472 1.953-.242.495-.55.878-.924 1.149-.362.26-.761.438-1.196.533-.435.084-.88.108-1.338.073a23.043 23.043 0 01-1.764-.217l-.28 3.621-1.867-.144zm4.11-4.786c.595.047.995-.013 1.2-.18.161-.137.288-.394.382-.772.093-.378.165-.886.214-1.524.04-.521.044-.917.011-1.187-.032-.27-.082-.461-.148-.573a.883.883 0 00-.171-.27c-.08-.07-.23-.136-.45-.195a3.285 3.285 0 00-.776-.14 9.97 9.97 0 00-.993-.03c-.31.009-.563.021-.757.038l-.35 4.53a10.317 10.317 0 001.838.303zM86.9 17.168l3.675-10.563 5.712 1.987-.53 1.526-3.934-1.402-1.106 2.936 3.642 1.267-.515 1.48-3.642-1.266-1.013 3.154 3.955 1.342-.531 1.526-5.712-1.987zm14.621 6.553l5.257-8.052-2.644-1.656.879-1.356 6.78 4.395-.879 1.356-2.632-1.764-5.19 8.095-1.571-1.018zm8.873 6.719l4.285-4.016 3.78-3.71 1.273 1.33-2.993 2.866c.148.139.322.297.522.475.207.186.418.39.632.613.546.57.948 1.145 1.208 1.724.266.571.318 1.165.154 1.78-.157.607-.589 1.25-1.298 1.93-.855.819-1.716 1.223-2.583 1.212-.853-.011-1.78-.54-2.784-1.588a19.178 19.178 0 01-.707-.785 31.245 31.245 0 01-.695-.84 30.791 30.791 0 01-.563-.68 2.595 2.595 0 01-.231-.31zm6.422-1.3a8.347 8.347 0 00-.677-.636 42.793 42.793 0 00-.566-.499l-2.809 2.735c.125.161.272.345.441.553.176.215.364.426.564.634.295.308.543.536.743.684.201.148.361.238.481.27.143.026.336-.011.579-.112.259-.1.585-.338.978-.714.285-.273.532-.547.742-.822.224-.274.343-.528.355-.762a1.007 1.007 0 00-.202-.581c-.124-.191-.334-.441-.629-.75zm7.563 22.886c-.29-.768-.371-1.513-.244-2.233.127-.72.516-1.398 1.167-2.03.664-.627 1.64-1.183 2.928-1.668 1.148-.433 2.12-.68 2.918-.741.808-.065 1.481.011 2.019.23a3.19 3.19 0 011.32 1.007 6.2 6.2 0 01.846 1.563c.09.24.186.54.288.9.105.37.197.735.275 1.093.092.364.15.656.176.874l-1.526.353a80.3 80.3 0 00-.141-.511 14.36 14.36 0 00-.196-.747 22.84 22.84 0 00-.232-.75 6.709 6.709 0 00-.654-1.6c-.152-.251-.315-.412-.49-.483-.182-.09-.434-.138-.755-.143-.321-.004-.744.053-1.269.171-.512.125-1.157.334-1.936.627-.978.369-1.722.752-2.234 1.15-.497.404-.795.733-.893.987-.129.322-.098.738.094 1.247.135.359.309.698.52 1.017.222.316.437.6.646.851.223.258.406.457.55.597l.221.224-1.138 1.062-.246-.198a11.227 11.227 0 01-.595-.58 6.981 6.981 0 01-.75-.948 6.34 6.34 0 01-.669-1.32zm3.179 10.29l11.176-.576.216 2.519-6.664 2.805.008.096 7.049 1.658.213 2.487-11.108 1.357-.159-1.85 9.131-.817-.009-.111-6.833-1.58-.178-2.073 6.464-2.708-.01-.112-9.137.754-.159-1.849zm-.702 20.382a5.574 5.574 0 01.573-1.634 3.45 3.45 0 011.144-1.214c.495-.318 1.137-.522 1.925-.61.786-.078 1.76-.005 2.923.217 1.153.22 2.075.51 2.766.87.7.373 1.216.798 1.548 1.274.341.489.541 1.005.6 1.548a5.544 5.544 0 01-.07 1.73 5.548 5.548 0 01-.569 1.617c-.258.494-.634.9-1.129 1.218-.485.32-1.121.524-1.909.613-.777.09-1.742.025-2.895-.195-1.163-.223-2.094-.52-2.794-.893-.7-.372-1.221-.798-1.564-1.276a3.32 3.32 0 01-.616-1.551 5.552 5.552 0 01.067-1.714zm1.634.312c-.08.42-.102.79-.065 1.112.046.323.188.606.424.846.235.251.61.475 1.126.672.527.198 1.23.382 2.11.55.891.17 1.612.259 2.165.267.561.02.996-.043 1.307-.19a1.38 1.38 0 00.707-.63c.162-.284.285-.641.367-1.07.082-.43.1-.807.053-1.13a1.454 1.454 0 00-.421-.863c-.237-.241-.618-.46-1.145-.659-.516-.196-1.22-.38-2.11-.55-.88-.168-1.602-.257-2.165-.267-.552-.008-.989.06-1.31.206-.31.147-.542.363-.694.649a3.787 3.787 0 00-.349 1.057zm-5.042 11.329l8.731 4.03 1.255-2.856 1.469.672-3.362 7.347-1.47-.672 1.362-2.86-8.764-3.959.779-1.702zm-5.339 9.751l4.038 3.278 4.719 3.654-.203.308-.534.802c-.226.338-.473.693-.741 1.066-.275.382-.548.744-.819 1.087-.649.819-1.403 1.256-2.262 1.311-.86.054-1.791-.316-2.795-1.11-.627-.497-1.079-.991-1.357-1.483-.275-.476-.421-.945-.437-1.407a3.178 3.178 0 01.226-1.29c.173-.408.401-.791.686-1.151a23.233 23.233 0 011.165-1.343l-2.848-2.254 1.162-1.468zm1.676 6.081c-.371.469-.545.834-.522 1.098.025.209.167.458.429.747.261.288.643.631 1.145 1.029.409.324.736.548.978.672.242.123.428.189.558.197a.9.9 0 00.32.008c.103-.027.241-.115.413-.265.175-.134.358-.322.55-.565.211-.267.404-.537.578-.807.167-.263.297-.479.391-.649l-3.563-2.821c-.07.054-.23.206-.482.455-.259.258-.524.558-.795.901zm-11.453 4.695l6.713 8.945-4.838 3.63-.97-1.292 3.36-2.481-1.818-2.556-3.085 2.314-.941-1.254 3.085-2.315-2.052-2.601-3.321 2.532-.97-1.292 4.837-3.63zm-13.598 8.472l3.745 8.856 2.851-1.268.634 1.486-7.432 3.172-.634-1.487 2.933-1.199-3.82-8.825 1.723-.735zm-10.528 3.61l.94 5.797.967 5.207-1.813.315-.708-4.084c-.198.046-.426.101-.685.168-.27.068-.557.129-.862.182-.778.135-1.479.148-2.104.04a2.542 2.542 0 01-1.563-.866c-.417-.469-.709-1.187-.877-2.154-.202-1.167-.056-2.107.437-2.82.485-.701 1.442-1.176 2.871-1.423a18.39 18.39 0 011.046-.149 30.41 30.41 0 011.086-.107c.35-.039.643-.068.878-.087.235-.019.364-.026.386-.019zm-2.508 6.053c.326-.056.628-.125.907-.205.27-.069.513-.133.73-.192l-.701-3.857a33.4 33.4 0 00-.705.057c-.277.027-.557.065-.841.114-.42.073-.748.151-.982.235-.235.084-.399.166-.493.248-.101.104-.178.285-.23.543-.062.271-.046.674.047 1.21.067.389.156.747.267 1.074.102.339.247.58.433.721.171.111.37.163.596.156.228.004.552-.031.972-.104z" fill="#FBAD03"/></svg>