<svg width="40" height="41" fill="none" xmlns="http://www.w3.org/2000/svg"><g clip-path="url(#clip0_47_95)"><path fill-rule="evenodd" clip-rule="evenodd" d="M2.917 5.5A2.917 2.917 0 000 8.417V31.75a2.918 2.918 0 002.917 2.917h34.166A2.917 2.917 0 0040 31.75V8.417A2.917 2.917 0 0037.083 5.5H2.917zM2.5 8.417A.417.417 0 012.917 8h34.166a.417.417 0 01.417.417v1.42L20.233 21.503a.416.416 0 01-.466 0L2.5 9.837v-1.42zm0 4.436V31.75c0 .23.187.417.417.417h34.166a.417.417 0 00.417-.417V12.853L21.633 23.575a2.918 2.918 0 01-3.266 0L2.5 12.853z" fill="#E5E5E5"/></g><defs><clipPath id="clip0_47_95"><path fill="#fff" transform="translate(0 .5)" d="M0 0h40v40H0z"/></clipPath></defs></svg>