<svg width="72" height="72" fill="none" xmlns="http://www.w3.org/2000/svg"><path d="M34.318 15.348a2.86 2.86 0 100-5.72 2.86 2.86 0 000 5.72zm-5.719 9.437L26.978 63.87h3.146l3.24-23.832h1.908l3.24 23.832h3.146l-1.62-39.084s.19 3.908 1.334 5.72a5.732 5.732 0 005.815 2.764s4.29-.572 5.053-2.097a1.89 1.89 0 000-1.81c-.096-.287-2.574.666-2.574.666l-2.765.477-2.001-1.049-1.24-1.43-1.906-6.959-3.337-1.239-9.247-.19-3.24 4.194-.477 4.1-1.62 1.143-6.388-5.91s-1.43 1.62-.476 2.955 3.622 5.052 5.624 5.434a3.97 3.97 0 004.194-1.335 11.804 11.804 0 001.812-5.434z" fill="#FBAD03"/><path d="M18.907 19a1.907 1.907 0 100-3.814 1.907 1.907 0 000 3.814z" fill="#EA5A47"/><path d="M38.907 8a1.907 1.907 0 100-3.814 1.907 1.907 0 000 3.814z" fill="#92D3F5"/><path d="M52.907 28a1.907 1.907 0 100-3.814 1.907 1.907 0 000 3.814z" fill="#B1CC33"/><path d="M34.5 15.3a3 3 0 100-6 3 3 0 000 6z" stroke="#000" stroke-width="2" stroke-miterlimit="10"/><path d="M39.084 24.785l2.48 37.178a1.616 1.616 0 01-1.43 1.906 2.04 2.04 0 01-1.812-1.906l-2.765-20.02c-.095-1.048-.667-1.906-1.239-1.906-.476 0-1.048.858-1.24 1.907l-2.764 20.019a2.04 2.04 0 01-1.81 1.906 1.616 1.616 0 01-1.43-1.906l2.478-37.178" stroke="#000" stroke-width="2" stroke-linecap="round" stroke-linejoin="round"/><path d="M18.113 23.832l3.527 4.003c1.716 2.002 3.527 1.43 3.908-1.143l.382-2.002c.476-2.574 2.478-4.957 4.575-5.148a33.995 33.995 0 017.627 0c2.097.286 4.194 2.574 4.575 5.148l.382 2.002c.476 2.573 2.478 4.29 4.575 3.717a91.76 91.76 0 003.813-.953" stroke="#000" stroke-width="2" stroke-linecap="round" stroke-linejoin="round"/></svg>