<svg width="40" height="40" fill="none" xmlns="http://www.w3.org/2000/svg"><g clip-path="url(#clip0_23_28)"><path fill-rule="evenodd" clip-rule="evenodd" d="M5 39.167A1.667 1.667 0 016.667 37.5H30a1.667 1.667 0 010 3.333H6.667A1.667 1.667 0 015 39.167zm0-10A1.667 1.667 0 016.667 27.5h36.666a1.667 1.667 0 110 3.333H6.667A1.667 1.667 0 015 29.167zm0-10A1.666 1.666 0 016.667 17.5h36.666a1.666 1.666 0 110 3.333H6.667A1.667 1.667 0 015 19.167zm13.333-10A1.667 1.667 0 0120 7.5h23.333a1.666 1.666 0 110 3.333H20a1.667 1.667 0 01-1.667-1.666z" fill="#E5E5E5"/></g><defs><clipPath id="clip0_23_28"><path fill="#fff" d="M0 0h40v40H0z"/></clipPath></defs></svg>