<svg width="72" height="72" fill="none" xmlns="http://www.w3.org/2000/svg"><path d="M45.304 45.616c2.452 0 3.752.543 5.171 1.406l.015-.024v11.9H21.507v-11.9l-.082-.15c1.38-.762 2.588-1.232 4.87-1.232l.09-.012s.278 11.844 8.917 12.96h.85c8.64-1.116 8.918-12.96 8.918-12.96" fill="#3F3F3F"/><path d="M55.245 40.848l2.828-2.829 7.375 7.375-2.828 2.829-7.375-7.375z" fill="#9B9B9A"/><path d="M53.622 40.586a4 4 0 100-8 4 4 0 000 8z" fill="#D0CFCE"/><path d="M58.026 42.794c-1.322-.365-1.844-1.876-1.75-3.238-1.57 1.404-3.975 1.366-5.482-.142a3.998 3.998 0 010-5.657 3.977 3.977 0 013.015-1.153c-.464-.873-.395-2.341-.778-3.846 0 0-.427-.328-.506-.782-.068-.412-.152-.82-.252-1.226-.568-2.23-1.286-7.798-8.353-12.693-2.422-1.677-4.865.532-4.865.532l-.31-.23s-3.767-6.168-10.465-.814c-6.698 5.355-7.786 10.463-8.353 12.693-.568 2.23-.34 4.414-2.157 4.632-1.818.218-2.728 3.125-1.818 4.51.91 1.386.683 4.362-1.247 4.894-1.93.532-2.822 4.29-1.873 5.882.57 1.125 2.209 2.89 4.957 4.517 1.22-3.038 3.788-5.753 9.073-5.753 3.17 2.104 5.89 3.56 8.938 3.573 3.048-.013 5.767-1.47 8.937-3.573 5.428 0 7.987 2.823 9.167 5.915a88.965 88.965 0 005.598-2.16c2.864-1.217.454-5.35-1.476-5.881z" fill="#A57939"/><path d="M24.814 26.039c-.93.096 1.329 2.728 1.329 3.707 0 1.173-1.445 1.463-1.23 2.553 1.22 6.184 5.686 10.77 11.01 10.77 6.262 0 11.338-6.346 11.338-14.174 0-.978-.08-1.934-.23-2.856 0 0-6.737-3.485-8.371-6.804v-.567s-.834 2.22-2.377 2.797l-.764-4.804s-5.754 8.867-10.705 9.378zM44.737 44.92c-3.17 2.104-5.889 3.56-8.937 3.573-3.048-.013-5.768-1.469-8.938-3.574-12 0-10 13.996-10 13.996l4.645-.024V46.998l-.082-.15c1.38-.762 2.588-1.232 4.87-1.232l.09-.012s.278 11.844 8.917 12.96h.85c8.64-1.116 8.918-12.96 8.918-12.96l.235.012c2.45 0 3.751.543 5.17 1.406l.015-.024V58.74l4.248-.022s2-13.797-10-13.797h-.001z" fill="#FADCBC"/><path d="M41.923 27.067a2.001 2.001 0 11-4.002-.002 2.001 2.001 0 014.002.002zm-8 0a2.001 2.001 0 11-4.002-.002 2.001 2.001 0 014.002.002zm1.999 10.003c-1.151 0-2.303-.287-3.447-.859a1 1 0 01.895-1.789c1.718.86 3.387.86 5.105 0a1 1 0 11.895 1.79c-1.144.571-2.296.857-3.447.857l-.001.001z" fill="#000"/><path d="M25.008 32.28c1.343 5.956 5.72 10.32 10.915 10.32 4.97 0 9.195-3.998 10.725-9.564m8.089 24.884s2-13-10-13c-3.191 2.127-5.926 3.598-9 3.592h.125c-3.073.006-5.808-1.465-9-3.592-12 0-10 13-10 13m38.383-17.072l2.828-2.83 7.375 7.376-2.828 2.829-7.375-7.375z" stroke="#000" stroke-width="2" stroke-miterlimit="10" stroke-linecap="round" stroke-linejoin="round"/><path d="M53.622 40.586a4 4 0 100-8 4 4 0 000 8zm10.63 6.406l2.846 2.846m-8.245-5.049v14M38.66 14.672s-3.623-6.17-10.065-.815c-6.442 5.354-7.489 10.463-8.035 12.693-.545 2.23-.326 4.414-2.074 4.632-1.748.219-2.623 3.125-1.748 4.51.874 1.386.656 4.362-1.2 4.894-1.856.532-3.494 3.698-1.42 5.882m24.84-32.079s2.35-2.21 4.68-.532c6.797 4.896 7.488 10.463 8.034 12.693.101.414.176.827.242 1.226.076.454.14.89.218 1.29" stroke="#000" stroke-width="2" stroke-miterlimit="10" stroke-linecap="round" stroke-linejoin="round"/><path d="M47.201 33.475c-1.965-1.529-.043-6.925-.043-6.925-2.228-.483-8.215-8.166-8.215-8.166s-.695 2.207-2.66 3.08l-.764-4.803s-6.25 8.969-11.04 9.889c0 0 3.615 4.305.121 6.052-3.494 1.747-2.553 4.913-1.024 5.24m21.494 7.066s-.278 11.844-8.918 12.958h-.85c-8.64-1.114-8.918-12.958-8.918-12.958M21.507 46.3v11.618M50.49 46.3v11.675" stroke="#000" stroke-width="2" stroke-miterlimit="10" stroke-linecap="round" stroke-linejoin="round"/></svg>