<svg width="35" height="36" fill="none" xmlns="http://www.w3.org/2000/svg"><path fill-rule="evenodd" clip-rule="evenodd" d="M30.876 1.14a3.81 3.81 0 00-1.349-.89 3.745 3.745 0 00-3.13.2 3.837 3.837 0 00-1.23 1.053L21.24 6.655a3.962 3.962 0 00-.689 3.338l1.197 4.892a1.546 1.546 0 01-.39 1.437l-5.374 5.489a1.453 1.453 0 01-1.409.398l-4.788-1.223a3.739 3.739 0 00-1.714-.032 3.781 3.781 0 00-1.554.736l-5.045 4.008c-1.813 1.44-1.98 4.177-.356 5.833l2.262 2.31c1.618 1.653 4.038 2.379 6.293 1.568a40.655 40.655 0 0015.334-9.874 41.757 41.757 0 009.668-15.658c.792-2.301.081-4.774-1.537-6.427l-2.262-2.31z" fill="#E5E5E5"/></svg>